<?xml version="1.0" encoding="UTF-8"?>
<svg id="Layer_2" data-name="Layer 2" xmlns="http://www.w3.org/2000/svg" viewBox="0 0 541.26 158.53">
  <defs>
    <style>
      .cls-1 {
        fill: #fff;
      }
    </style>
  </defs>
  <g id="Layer_1-2" data-name="Layer 1">
    <g>
      <g>
        <path class="cls-1" d="M49.48,128.05C20.87,128.05,0,107.53,0,79.27S20.87,30.49,49.48,30.49c18.29,0,26.62,9.38,32.72,9.38,2.7,0,3.99-2.58,5.39-4.81.35-.47.47-.7.94-.7h.7c-5.28,11.73-6.1,17.94-6.1,34.94h-.47c-.47,0-.7-.35-.7-.7,0-21.69-12.08-36.7-32.48-36.7-25.21,0-41.51,18.88-41.51,47.37s16.3,47.37,41.51,47.37c16.77,0,30.49-10.9,30.49-20.64v-9.61c0-12.55-5.39-17.24-29.2-17.24-.35,0-.7-.23-.7-.7v-.47h42.57v.47c0,.35-.23.7-.47.7-3.05.23-4.69,2.81-4.69,7.74v39.28h-.47c-.35,0-.7-.35-.7-.7,0-7.97-1.05-11.61-3.28-11.61-3.75,0-12.9,14.19-33.54,14.19Z"/>
        <path class="cls-1" d="M99.55,33.54c-.23,0-.47-.35-.47-.7v-.47h17.82v.47c0,.35-.23.7-.47.7-3.05.23-4.69,2.82-4.69,7.74v83.49c39.99.35,52.77,32.36,91.34,32.36,18.29,0,29.67-8.21,39.99-19.93,1.52-1.76,3.87-2.11,5.51-.47l.47.47c-10.32,14.31-29.67,21.34-45.97,21.34-40.34,0-71.88-32.36-98.97-32.36-2.81,0-8.09.94-12.55,3.4v-1.05c0-.23.12-.47.35-.59,2.23-1.17,4.34-1.88,6.33-2.46,2.81-.82,5.98-2.11,5.98-8.21V41.27c0-4.92-1.64-7.5-4.69-7.74Z"/>
        <path class="cls-1" d="M183.62,125c3.05-.23,4.69-2.82,4.69-7.74V36.94c-1.52-2.23-2.7-3.28-4.69-3.4-.23,0-.47-.35-.47-.7v-.47h11.14l54.64,84.78,1.52,2.35V41.27c0-4.92-1.64-7.5-4.69-7.74-.23,0-.47-.35-.47-.7v-.47h11.73v.47c0,.35-.23.7-.47.7-3.05.23-4.69,2.82-4.69,7.74v80.32c1.52,2.23,2.7,3.28,4.69,3.4.23,0,.47.35.47.7v.47h-11.14l-54.64-84.78-1.52-2.35v78.21c0,4.92,1.64,7.5,4.69,7.74.23,0,.47.35.47.7v.47h-11.73v-.47c0-.35.23-.7.47-.7Z"/>
        <path class="cls-1" d="M269.57,62.97c0,.35-.23.7-.7.7h-.47c0-16.65-2.23-28.02-6.1-34.94h.7c.47,0,.59.23.94.7,1.41,2.23,3.05,2.93,4.93,2.93h17.82c38.81,0,64.49-32.36,102.48-32.36,16.3,0,36.82,7.04,47.14,21.34l-.47.47c-1.64,1.64-3.99,1.29-5.51-.47-10.32-11.73-21.69-19.93-39.99-19.93-32.71,0-42.56,26.15-81.96,31.43v84.43c0,4.92,1.64,7.5,4.69,7.74.23,0,.47.35.47.7v.47h-17.82v-.47c0-.35.23-.7.47-.7,3.05-.23,4.69-2.82,4.69-7.74V33.54c-2.35.12-4.69.23-7.15.23h-6.92c-12.55,0-17.24,5.39-17.24,29.2Z"/>
        <path class="cls-1" d="M454.96,33.54c-3.05.23-4.69,2.82-4.69,7.74v51.95c0,21.93-13.6,34.83-34.71,34.83s-34.71-12.9-34.71-34.83v-51.95c0-4.92-1.64-7.5-4.69-7.74-.23,0-.47-.35-.47-.7v-.47h17.82v.47c0,.35-.23.7-.47.7-3.05.23-4.69,2.82-4.69,7.74v53.35c0,18.88,12.78,31.31,30.25,31.31s30.25-11.96,30.25-32.71v-51.95c0-4.92-1.64-7.5-4.69-7.74-.23,0-.47-.35-.47-.7v-.47h11.73v.47c0,.35-.23.7-.47.7Z"/>
        <path class="cls-1" d="M464.1,125c3.05-.23,4.69-2.82,4.69-7.74V41.27c0-4.92-1.64-7.5-4.69-7.74-.23,0-.47-.35-.47-.7v-.47h40.81c21.34,0,36.82,12.2,36.82,28.85s-15.48,28.84-36.82,28.84h-28.14v27.2c0,4.92,1.64,7.5,4.69,7.74.23,0,.47.35.47.7v.47h-17.82v-.47c0-.35.23-.7.47-.7ZM504.44,88.65c16.65,0,28.85-11.61,28.85-27.44s-12.2-27.44-28.85-27.44h-28.14v54.88h28.14Z"/>
      </g>
      <path class="cls-1" d="M152.15,18.39c.46.3.96.54,1.49.7.07.02.15.03.22.04.06.01.12.02.19.03.05.25.11.48.15.71.04.24.19.45.19.72-.17-.08-.31-.15-.46-.21-.36-.13-.73-.19-1.1-.26-.07-.01-.15,0-.23,0-.13.02-.21.13-.17.26.03.09.07.18.12.26.19.28.44.51.73.68.27.16.55.3.82.46.07.04.16.06.23.17-.1,0-.18,0-.26,0-.32-.03-.65-.06-.97-.02-.22.02-.43.08-.62.18-.2.1-.27.25-.2.46.04.12.11.23.19.34.05.08.13.14.19.21-.17.39-.12.34,0,.66.03.09.08.18.13.26.47.89,1.14,1.63,1.85,2.32.05.05.12.09.18.13.05.03.09.05.14.07.07.03.15.03.21-.02.08-.06.09-.14.04-.23-.26-.08-.27-.07-.46-.27-.47-.48-.92-.98-1.3-1.53-.18-.26-.32-.54-.47-.81-.05-.08-.06-.18-.11-.29.1-.01.17-.04.24-.03.17.04.33.1.49.17.15.07.28.16.41.26.56.43,1.03.92,1.24,1.62.07.23.17.44.36.57,0,.37,0,.72,0,1.06,0,.02-.03.05-.05.08-.12-.07-.23-.14-.34-.21-.36-.21-.73-.39-1.13-.47-.16-.03-.32-.04-.48-.03-.38.04-.58.35-.48.72.08.28.22.52.43.71.18.17.39.31.58.46.07.06.17.08.25.19-.08,0-.14.02-.2.01-.11,0-.22-.02-.32-.01-.46.01-.67.3-.54.74.02.08.06.16.11.24.1.16.22.29.38.39.33.21.68.32,1.07.31.14,0,.28-.02.42-.03.06,0,.12,0,.18.03.39.28.85.36,1.31.43.06,0,.12.03.18.04.04.35.07.69.11,1.06-.06-.04-.11-.07-.15-.1-.31-.26-.66-.46-1.01-.65-.23-.13-.47-.21-.73-.27-.18-.04-.36-.05-.54,0-.22.07-.34.25-.3.47.02.11.07.23.14.32.11.15.24.28.36.41.05.05.1.11.18.19-.2-.02-.36-.04-.52-.05-.12,0-.24-.01-.36,0-.22.02-.36.17-.36.39,0,.1.03.21.07.31.06.14.17.25.29.34.13.09.28.17.42.25.07.04.14.08.22.13-.18.01-.35,0-.52-.02-.14-.01-.28-.02-.42-.01-.19.01-.3.14-.29.32,0,.09.03.19.07.28.06.15.17.25.29.34.07.06.15.12.23.18-.04.03-.07.05-.09.07-.15.15-.18.26-.07.43.06.1.14.19.23.27.25.22.54.35.87.42.32.06.64.1.97.08.4-.03.79-.03,1.17-.22.01.08.02.13.02.18,0,.46.01.93,0,1.39,0,.15-.04.3-.07.45,0,.04-.02.09-.1.08-.03-.07-.07-.14-.11-.21-.11-.19-.22-.37-.34-.55-.06-.09-.14-.17-.22-.23-.18-.14-.39-.09-.47.12-.04.11-.07.23-.09.34-.03.29-.04.58.02.87.01.06.01.11.02.17-.09-.05-.14-.12-.19-.19-.18-.26-.36-.52-.59-.73-.14-.12-.28-.24-.46-.3-.29-.1-.51.04-.51.34,0,.19.04.39.09.57.1.36.25.69.44,1.01.02.03.03.08.05.16-.17-.15-.29-.27-.43-.38-.23-.18-.48-.34-.78-.38-.41-.06-.7.15-.76.55-.04.23.02.45.11.66.13.34.34.63.58.89.49.54,1.07.97,1.7,1.34.06.03.12.06.18.08.24.11.46.1.65-.1.01-.01.04,0,.07-.01.22.22.43.44.67.68-.01.16-.03.33-.05.5-.01.11-.03.21-.06.33-.13,0-.25,0-.36,0-.22,0-.43,0-.65,0-.21,0-.41,0-.62-.03-.67-.07-1.19-.43-1.61-.94-.06-.07-.13-.15-.09-.26.06-.08.15-.09.23-.08.14,0,.28.02.42.04.55.09,1.06.29,1.57.51.15.07.3.13.44.2.15.07.31.08.47.02.03,0,.05-.05.09-.08-.13-.02-.24-.03-.34-.07-.11-.04-.21-.1-.32-.15-.22-.11-.44-.23-.67-.33-.46-.2-.93-.35-1.43-.41-.14-.02-.28-.02-.42,0-.32.04-.46.3-.33.6.03.08.08.16.13.22.42.52.91.92,1.59,1.05.06.01.12.03.19.05-.05.31,0,.44.24.57.07.03.14.07.21.08.15.01.3.03.45.01.17-.02.34-.08.51-.11.06-.01.12-.06.19.01,0,.05,0,.12,0,.18-.03.41-.06.82-.09,1.23-.05.79-.1,1.58-.15,2.36,0,.1,0,.2-.07.33-.05-.1-.09-.16-.12-.23-.17-.33-.34-.65-.57-.94-.18-.22-.37-.42-.57-.62-.09-.09-.2-.16-.34-.18-.15-.02-.28.08-.29.24,0,.05,0,.11.03.16.05.12.09.24.15.36.26.52.53,1.04.79,1.56.02.05.09.1.02.18-.06-.01-.12-.03-.18-.04-.27-.06-.55-.14-.82-.18-.22-.04-.45-.04-.68-.05-.07,0-.15.01-.22.04-.16.07-.21.24-.1.37.05.07.12.12.19.18.29.23.58.45.88.67.51.39,1.02.77,1.65.93,0,.02,0,.02,0,.04.11,0,.23,0,.34.02,0,0,0-.01,0-.02,0-.37.02-.73.06-1.1.01-.16.06-.32.11-.47.02-.06.09-.11.15-.19.05.07.12.11.12.16.03.17.06.34.05.51-.01.29-.06.58-.08.87,0,.04,0,.09,0,.13,0,.05,0,.1,0,.15.07,0,.15.02.22.03,0,0,0-.01,0-.02.2-.02.37-.02.54-.04.25-.03.48-.13.67-.3.19-.17.22-.35.11-.58-.02-.05-.05-.09-.08-.15.09-.04.16-.06.22-.09.25-.1.51-.19.75-.31.45-.24.8-.59,1.02-1.06.05-.11.09-.22.1-.34.02-.21-.11-.36-.33-.36-.14,0-.28.03-.41.07-.29.1-.55.26-.78.45-.07.06-.15.12-.23.18-.07-.16-.07-.16.04-.25.51-.41.96-.88,1.42-1.34.17-.17.33-.37.47-.57.09-.13.16-.29.2-.44.07-.27-.13-.53-.41-.53-.12,0-.24.02-.34.07-.16.07-.3.16-.44.26-.28.2-.52.46-.74.72-.21.25-.42.5-.63.74-.03.03-.05.09-.12.07.05-.19.1-.37.14-.56.05-.2,0-.39-.1-.56-.12-.22-.34-.3-.58-.22-.08.03-.15.06-.24.09-.04-.17,0-.32.01-.47.03-.23.06-.47.09-.71.02-.2.05-.41.06-.61,0-.12.06-.2.15-.25.44.22.88.21,1.32,0,.26-.13.43-.33.37-.65,0-.02,0-.04.02-.07.06-.05.13-.1.2-.15.09-.08.18-.16.25-.25.16-.21.14-.33-.04-.54-.01-.01,0-.04,0-.07.15-.09.31-.18.47-.27.28-.16.55-.34.79-.57.11-.1.22-.22.29-.34.22-.35.07-.7-.34-.78-.12-.03-.26-.02-.38,0-.11.01-.21.06-.31.1-.6.24-1.05.67-1.5,1.11-.02.02-.02.09,0,.11.02.03.08.05.11.04.11-.05.21-.11.3-.18.24-.17.46-.36.7-.52.22-.16.47-.27.74-.33.12-.03.24-.03.35.03.07.03.11.12.08.19-.04.08-.09.18-.16.24-.18.16-.36.32-.55.45-.28.19-.57.35-.86.52-.3.17-.61.34-.91.5-.24.13-.46.29-.65.48-.07.07-.14.13-.24.16-.16.05-.23.18-.25.34-.03.3-.04.6-.08.9-.08.59-.17,1.18-.25,1.76-.02.14-.1.22-.24.31,0-.12,0-.2,0-.29.01-.25.03-.5.04-.74.05-.84.1-1.68.15-2.52,0-.02.02-.03.03-.05.08,0,.16.02.25.03,0-.07-.02-.15,0-.17.13-.11.08-.24.05-.36-.07-.31-.16-.63-.23-.94-.15-.7-.2-1.41-.12-2.13,0-.07.01-.14.1-.2.04.15.08.29.11.42.14.63.17,1.26.18,1.9,0,.24,0,.47.06.7.08.04.14.07.2.11.05.03.09.06.16.01,0-.05.02-.12.03-.18.01-.1.07-.17.15-.23.72-.48,1.31-1.1,1.81-1.79.3-.41.57-.84.8-1.3.05-.11.1-.22.13-.33.05-.18-.07-.3-.25-.26-.07.01-.14.04-.21.07-.02-.12-.03-.23-.06-.33-.07-.23-.26-.35-.49-.32-.08.01-.17.04-.25.08-.28.12-.49.32-.68.54-.06.07-.12.14-.21.24-.05-.15-.04-.27-.05-.38-.01-.12-.02-.23-.03-.36.18-.05.22-.18.21-.33-.02-.49-.11-.97-.2-1.45-.04-.26-.16-.49-.18-.75-.01-.16-.05-.32-.09-.48-.01-.06-.05-.1-.11-.1-.06,0-.11.05-.12.13,0,.1,0,.19,0,.29.03.62.02,1.23-.02,1.84-.11.1-.2.2-.33.33,0-.21.02-.38.02-.55,0-.41,0-.82-.07-1.23-.02-.12-.02-.24.05-.35.17-.28.09-.52-.09-.75-.09-.12-.21-.22-.31-.33-.03-.03-.07-.05-.06-.1,0-.01,0-.02.02-.03.04-.02.08-.04.12-.04.22-.02.21-.01.26-.2.05-.19.11-.37.17-.56.06-.2.22-.32.41-.39.17-.06.34.08.31.26-.01.07-.04.15-.07.21-.04.09-.1.17-.15.25-.01.03-.01.06-.02.1.04.05.09.1.12.13-.02.16-.03.31-.05.45.11.08.22.08.33.08.39-.02.77-.09,1.16-.16.05-.01.1-.04.16-.04.06,0,.13,0,.19,0,.05,0,.11,0,.16.02.05.01.11-.07.17.01-.21.17-.43.3-.67.4-.41.18-.82.35-1.22.52-.07.03-.11.09-.09.15.02.07.08.1.15.09.13-.02.26-.03.38-.08.28-.1.54-.21.82-.31.43-.16.81-.41,1.17-.69.06-.05.12-.1.16-.16.1-.14.08-.26-.07-.36-.05-.03-.11-.06-.19-.11.06-.05.11-.08.14-.13.19-.27.16-.47-.1-.67-.06-.05-.13-.08-.19-.12-.06-.03-.13-.06-.22-.1.09-.11.17-.2.24-.29.15-.19.29-.38.38-.6.14-.38-.05-.69-.45-.7-.16,0-.33.02-.48.07-.22.08-.43.19-.65.29-.05.02-.09.06-.15,0,0-.05,0-.1,0-.15,0-.19-.11-.3-.27-.36-.08-.03-.17-.05-.25-.05-.21-.02-.41.03-.59.14-.08.05-.16.1-.27.16-.01-.08-.02-.14-.03-.19.21-.12.41-.23.61-.34.06.02.11.03.16.05.3.09.57.06.82-.16.06-.06.14-.1.22-.14.45-.26.79-.63,1.04-1.09.06-.12.11-.26.15-.39.11-.45-.15-.79-.61-.84-.08,0-.17.03-.25-.05.03-.06.07-.13.09-.2.09-.26.18-.51.26-.77.06-.22.08-.45.06-.68-.02-.35-.32-.68-.82-.47-.2.09-.37.22-.52.37-.21.21-.38.45-.51.71-.04.08-.08.15-.13.23,0,.01-.06,0-.09,0,0,.02,0,.04.01.05,0-.02,0-.03-.01-.05.13-.65.18-1.31-.06-1.94.02-.04.04-.06.06-.09.43-.45.75-.97,1-1.54.06-.13.1-.27.12-.4.02-.09.02-.2,0-.29-.05-.28-.28-.45-.56-.43-.13,0-.25.05-.37.12-.25.16-.46.36-.64.6-.15.21-.28.43-.43.65-.03.04-.05.1-.12.07-.07-.34-.13-.67-.2-1.02.06-.02.11-.04.16-.05.57-.16,1.04-.48,1.44-.9.15-.16.28-.36.4-.55.06-.1.09-.22.11-.34.03-.29-.13-.48-.42-.5-.15,0-.31,0-.45.05-.23.06-.45.16-.67.24-.05.02-.09.03-.19.07.07-.14.12-.23.16-.33.12-.24.22-.49.25-.77.01-.13,0-.26-.05-.38-.1-.25-.34-.39-.6-.33-.14.03-.29.1-.42.17-.23.13-.42.31-.56.53-.15.23-.28.46-.42.7-.03.04-.04.1-.12.07-.01-.09-.01-.19-.05-.28-.05-.13.09-.16.1-.24.02-.13.01-.26-.1-.36-.05.01-.1.02-.15.03-.34-.3-.37-.3-.73-.03-.04-.03-.08-.05-.14-.1.16-.15.16-.29.1-.45-.03-.07-.04-.15-.07-.22-.13-.42-.23-.86-.3-1.29-.02-.11-.04-.23-.01-.38.05.06.09.08.1.12.06.14.13.28.17.42.08.35.15.7.22,1.05.02.13.02.26.17.38.08-.13.19-.23.32-.26.03-.15.03-.28.07-.4.15-.48.35-.93.65-1.33.14-.19.31-.36.48-.53.07-.07.17-.13.27-.18.05-.02.12,0,.18,0,0,.22-.08.4-.16.58-.26.56-.61,1.07-.98,1.56-.11.15-.22.29-.33.44-.03.04-.04.09-.07.17.09-.01.16,0,.21-.03.16-.07.29-.19.4-.32.34-.38.63-.8.87-1.25.12-.23.23-.47.33-.71.06-.14.09-.29.08-.44-.02-.28-.21-.43-.49-.36-.12.03-.25.09-.35.16-.16.11-.29.26-.44.38-.03.03-.05.1-.13.06.1-.17.2-.34.3-.51.1-.18.19-.36.28-.55.04-.1.07-.2.09-.31.02-.18-.02-.35-.19-.45-.17-.11-.35-.1-.52,0-.06.03-.11.07-.16.11-.11.12-.22.23-.32.36-.21.28-.35.6-.47.92-.04.12-.08.25-.09.38,0,.08.02.17.05.25.03.06.09.1.16.04.08-.57.35-1.06.69-1.52.09-.12.2-.23.35-.28.09-.03.18.03.18.13,0,.05,0,.11-.03.16-.05.12-.09.25-.15.36-.33.55-.66,1.09-.99,1.64-.03.05-.08.09-.12.14-.1-.19-.19-.37-.28-.54-.09-.18-.27-.26-.47-.42.15-.05.25-.1.31-.21.21-.35.39-.72.52-1.12.05-.16.08-.34.09-.51.01-.27-.07-.51-.25-.72-.15-.16-.34-.16-.47.01-.07.09-.12.2-.18.31-.02.04-.05.08-.1.15-.08-.3-.14-.56-.22-.82-.1-.34-.31-.59-.6-.78-.15-.09-.28-.03-.31.14-.03.21,0,.41.06.61.12.35.27.7.6.9.14.09.22.19.27.34.02.05.05.1.07.14.06.13.06.43,0,.62-.03-.04-.06-.07-.08-.1-.19-.29-.45-.53-.7-.77-.06-.06-.14-.11-.22-.14-.14-.05-.27.05-.27.19,0,.07.02.15.05.22.07.15.14.3.22.43.24.38.51.73.86,1.01.07.06.14.11.21.23-.18-.12-.3-.22-.44-.29-.4-.22-.83-.36-1.27-.48-.07-.02-.15-.03-.22-.03-.18,0-.3.12-.3.31,0,.09.02.19.06.28.17.4.45.68.86.83.29.11.59.15.89.16.12,0,.24-.02.35.05.07.36.14.71.22,1.07-.03,0-.06.02-.07.01-.47-.2-.97-.28-1.46-.44-.19-.06-.38-.1-.58-.08-.1.01-.21.04-.3.09-.13.07-.16.21-.08.33.06.09.14.17.22.23ZM155.19,47.62c-.09-.19-.18-.39-.27-.58.02,0,.04-.02.06-.03.52.6.85,1.3,1.11,2.07-.17-.03-.24-.13-.3-.25-.2-.41-.4-.81-.6-1.22ZM156.18,49.7s-.09.08-.15.13c.08.18.14.36.04.58-.05,0-.12,0-.17-.03-.24-.12-.49-.24-.71-.39-.45-.32-.88-.66-1.32-1-.02-.02-.03-.05-.06-.08.1-.06.2-.03.29-.02.49.07.97.19,1.45.34.12.04.21.13.34.22.09.01.11-.18.27-.11.04.11,0,.24,0,.37ZM156.47,43.81c-.24.06-.48.12-.73.15-.14.02-.3.02-.44-.1.15-.15.34-.19.52-.25.03-.01.06,0,.1-.01.22-.03.45-.06.67-.08.04.23.03.27-.12.31ZM159.44,42.35c.04.12-.07.17-.13.24-.07.07-.14.13-.26.07-.08-.03-.14.03-.2.08-.24.18-.52.26-.81.29-.03,0-.06,0-.09-.01.28-.36.97-.67,1.49-.66ZM157.78,43.43c.08-.01.17-.01.26-.02.18-.02.36-.06.52-.17.11-.08.11-.08.35-.06,0,.04,0,.09-.02.11-.05.05-.11.11-.17.14-.32.16-.66.15-1.05.1.06-.05.08-.1.11-.1ZM158.95,46.56c.23-.28.46-.54.75-.76.14-.11.31-.19.47-.28.03-.02.09-.03.12-.02.03,0,.08.05.08.08,0,.05,0,.11-.03.15-.1.16-.2.34-.33.48-.79.83-1.59,1.64-2.58,2.24-.08.05-.16.11-.24.16,0,0-.02,0-.05-.01.02-.04.03-.08.06-.1.18-.2.34-.42.54-.6.44-.42.84-.86,1.23-1.33ZM157.11,47.15c0-.15.02-.3.03-.45.03-.3.19-.52.43-.69.07-.05.18-.01.21.08.05.13.06.27.02.41-.06.23-.15.45-.29.64-.11.15-.22.29-.33.43-.02.02-.05.03-.1.06.01-.18.02-.33.03-.49ZM157.08,49.15c.27-.32.67-.46,1-.7.02-.01.06,0,.1,0,.03.15-.08.27-.1.4.12.13.16.13.26.05.19-.17.38-.35.58-.52.22-.18.46-.32.72-.42.08-.03.17-.05.25-.07.03,0,.06,0,.11.02,0,.05,0,.11-.02.15-.11.26-.27.49-.49.67-.17.14-.34.27-.53.36-.31.15-.63.27-.95.4-.07.03-.15.04-.22.05-.22.04-.23.04-.46.27.02.11.1.1.17.09.17-.02.32.02.45.13.02.02.04.05.06.08-.05.14-.17.18-.29.24-.22.1-.4.12-.67.07,0-.42.02-.83.03-1.28ZM154.48,37.51c0-.05,0-.11,0-.15.06-.08.13-.06.18-.02.1.07.22.15.3.24.14.16.28.33.4.5.32.46.58.96.82,1.47.13.27.27.54.41.81.03.06.05.12.06.18.03.18.05.36.09.57-.04-.02-.08-.03-.1-.06-.31-.35-.61-.69-.92-1.04-.01-.01-.01-.04-.02-.06.07-.06.13-.12.19-.17-.01-.08-.05-.08-.1-.07-.09.02-.15-.03-.2-.08-.57-.6-.96-1.3-1.11-2.12ZM155.68,41.7c-.09-.02-.19-.06-.27-.11-.61-.39-1.2-.81-1.68-1.36-.2-.23-.37-.47-.5-.76-.07-.16-.11-.33-.1-.5.02-.23.15-.33.37-.29.08.01.17.04.25.07.22.1.41.24.58.4q-.11.28.02.56c.12.25.27.47.46.67.3.32.6.65.91.97.07.08.14.16.21.25-.07.13-.16.13-.25.11ZM156.78,42c-.07.02-.09-.03-.11-.06-.55-.6-1.1-1.21-1.65-1.82-.11-.12-.2-.25-.29-.38-.02-.03-.03-.07-.05-.15.07.03.11.04.14.06.16.13.34.24.47.39.45.51.88,1.03,1.31,1.55.08.1.14.21.21.33.01.02-.01.05-.02.07ZM156.74,38.51c-.05.1-.06.23-.09.34-.02.1-.02.21-.07.3-.12-.04-.15-.14-.18-.22-.18-.46-.23-.94-.25-1.42,0-.17.02-.34.1-.55.36.41.54.84.7,1.28-.08.09-.17.17-.22.27ZM158.52,38.46c.11-.1.22-.18.31-.28.18-.18.35-.35.58-.47.11-.06.24-.15.36-.07.13.08.09.22.09.35,0,.16-.05.28-.19.38-.44.31-.83.69-1.15,1.13-.01.02-.03.02-.09.06.03-.39.05-.76.08-1.11ZM159.57,38.87s.05-.04.08-.05c0,0,.02,0,.05,0,.02.11.05.21.08.34-.47.71-1.01,1.38-1.71,1.94-.01-.05-.03-.08-.02-.1.33-.84.81-1.57,1.52-2.14ZM157.69,39.32c.09-.06.09-.1.04-.21-.03-.06-.05-.12-.06-.18-.06-.61.04-1.2.22-1.79,0-.02.03-.03.07-.06.09.14.12.27.14.41.09.7.06,1.4-.04,2.1,0,.05-.02.1-.04.16q-.07.22.08.38c-.13.32-.26.64-.39.96,0,0-.02,0-.05,0,0-.29,0-.57-.02-.86-.02-.28-.07-.55-.11-.84.06-.03.11-.04.15-.07ZM160.28,27.88c.23,0,.36.14.33.38-.02.12-.06.23-.11.34-.22.42-.52.77-.92,1.02-.18.11-.38.21-.58.32-.12-.05-.24-.09-.35-.16-.19-.13-.23-.28-.15-.5.02-.05.05-.1.06-.15.03-.26.2-.42.39-.58.3-.26.62-.48.99-.6.11-.04.23-.06.35-.07ZM158.55,27.48c.1-.64.42-1.15.88-1.58.09-.09.21-.16.32-.21.25-.12.39-.03.41.25,0,.09,0,.17,0,.26-.05.43-.17.85-.33,1.25-.04.11-.1.22-.21.27-.32.14-.59.35-.86.58-.01.01-.04.01-.07.02-.09-.2-.18-.39-.26-.58.04-.08.1-.17.12-.27ZM155.66,17.01s.02.02.03.02c-.11.27-.22.53-.33.81-.09-.03-.06-.1-.08-.15-.02-.06-.03-.12-.03-.14.15-.2.28-.37.41-.54ZM154.59,14.43c.04-.16.09-.31.14-.46.02-.05.06-.09.1-.15.05.05.09.08.11.13.1.18.12.37.08.56-.08.38-.24.73-.43,1.08,0-.39-.09-.77,0-1.16ZM153.61,13.36c-.06-.14-.15-.28-.1-.48.26.23.34.52.38.87-.19-.11-.22-.26-.28-.39ZM154.06,15.69s0,0-.01,0c0-.02.02-.05.03-.07-.03.01-.06.02-.1.04-.23-.26-.43-.52-.59-.83.07-.05.09,0,.11.03.19.19.37.39.49.64.02.05.06.08.1.12,0,.02-.01.05-.02.07ZM154.17,16.76s-.05.03-.07.03c-.29-.03-.58-.04-.87-.09-.38-.07-.67-.3-.85-.64-.03-.06-.04-.14-.06-.21.11-.07.21-.02.29,0,.55.17,1.1.31,1.59.67-.02.1-.03.17-.04.24ZM154.87,22.78c-.41.14-1.33.2-1.7.13-.24-.05-.42-.16-.54-.38-.01-.03-.02-.06-.03-.1.11-.12.26-.16.4-.17.24-.02.47-.05.71-.04.44.01.88.04,1.34.07-.07.18-.13.34-.19.5ZM155.32,24.45c-.07-.45-.11-.9-.12-1.34.14-.13.3-.15.46-.22.17.24.3.48.29.78,0,.42.04.84.14,1.25,0,.03,0,.06,0,.08-.15.19-.26.34-.4.5-.11-.36-.32-.68-.38-1.06ZM157.25,25.03c-.14.42-.28.81-.42,1.21-.06-.02-.04-.08-.05-.12-.04-.16-.07-.32-.11-.47-.06-.24-.06-.23,0-.47-.08-.07-.1.06-.18.04-.02-.03-.05-.07-.06-.12,0-.1,0-.19,0-.29.06-.42.03-.84-.09-1.25-.04-.15-.06-.3-.01-.45.05-.17.08-.34.13-.5.04-.12.1-.24.24-.32.04.05.1.08.12.14.05.12.11.24.13.36.1.43.17.87.18,1.32,0,.11-.03.21-.05.32-.03.13-.08.25-.11.37-.04.19.03.25.26.23ZM156.36,25.8c.05.24.09.49.12.73.05.35.09.71.14,1.11-.19-.13-.36-.09-.55,0-.03-.08-.08-.14-.09-.21-.09-.54-.08-1.08.02-1.61.03-.13.02-.29.19-.34.14.07.14.21.17.33ZM153.69,27.5c-.11-.13-.2-.28-.23-.46-.03-.16.04-.26.19-.27.1-.01.19,0,.29,0,.12.02.23.05.34.09.4.14.77.34,1.11.59.33.25.33.25.48.7-.15.07-.28.15-.42.2-.19.07-.39.07-.57,0-.47-.19-.88-.46-1.2-.85ZM155.76,28.87c-.17-.02-.29-.11-.44-.18.18-.1.31-.18.46-.26.03.15,0,.29-.02.44ZM156.48,30.12c-.17,0-.34,0-.52-.08.03-.08.06-.15.09-.23-.14-.05-.25-.03-.37-.02-.22.02-.43.05-.65.06-.34.02-.67-.05-.97-.21-.15-.08-.27-.18-.35-.32-.05-.08-.08-.18-.09-.27-.02-.11.04-.18.16-.2.02,0,.04,0,.06,0,.67-.04,1.32.02,1.93.32.02,0,.03.03.06.06.02.07.04.17.08.26.03.08.08.16.13.22.05.07.15.09.2.04.06-.05.09-.18.04-.23-.19-.18-.14-.42-.17-.63-.05-.32.05-.64.22-.95.14.05.2.15.24.25.11.27.22.54.31.82.05.16.08.34.11.51.03.13.07.24.14.36.07.12.1.26.14.38-.05.08-.1.05-.15.03-.2-.08-.41-.11-.63-.12ZM154.92,31.45c-.07-.08-.14-.17-.19-.26-.05-.08,0-.18.09-.2.09-.01.19-.01.29,0,.26.04.5.13.73.25.48.24.93.55,1.36.87.06.04.06.05.08.21-.06.01-.09.03-.12.03-.86-.02-1.64-.25-2.25-.91ZM156.94,35.35c-.52.08-1.05.13-1.58.07-.34-.04-.65-.14-.92-.36-.04-.04-.07-.09-.16-.2.5-.02.92-.02,1.33.06.37.07.74.15,1.11.24.1.02.21.04.24.17-.01.01-.02.02-.03.03ZM157.25,34.25c.05.07.03.14.01.21-.44,0-.85.01-1.27,0-.35,0-.69-.02-1.04-.06-.19-.02-.38-.08-.56-.15-.13-.05-.24-.14-.35-.22-.09-.07-.15-.16-.12-.3.05,0,.11-.03.17-.02.81.05,1.61.18,2.36.54.09.04.18.07.27.11.14.06.27.06.48-.02-.19-.07-.32-.11-.45-.16-.13-.06-.25-.13-.38-.19-.12-.06-.25-.12-.38-.18.03-.03.05-.05.06-.05.17-.01.35-.03.52-.03.03,0,.06.01.09.03.22.14.43.3.58.51ZM157.13,33.28c-.93.22-1.8.06-2.62-.39-.1-.06-.19-.14-.27-.22-.06-.06-.1-.14-.05-.26.16-.05.31-.04.46-.02.58.05,1.15.18,1.69.4.26.11.52.21.77.33.04.02.07.06.12.11-.05.03-.07.06-.09.07ZM157.23,33c-.12-.09-.23-.16-.35-.25.19-.06.35-.11.53-.16-.06.15-.12.27-.18.42ZM157.41,31.54c-.1-.33-.15-.59-.13-.86.12-.04.23-.08.35-.12.06.11.06.23.07.34,0,.05,0,.11-.03.16-.07.14-.15.28-.26.48ZM160.73,32.71c-.07.16-.19.24-.32.32-.24.15-.5.26-.77.31-.35.07-.7.13-1.04.2-.01-.02-.02-.04-.04-.06.03-.04.05-.09.09-.13.23-.26.5-.47.82-.61.12-.05.23-.11.35-.17.17-.09.35-.1.53-.09.16.01.28.08.38.21ZM159.24,31.49c.2-.15.41-.28.63-.39.17-.09.36-.14.54-.2.15-.04.19-.02.38.08-.03.07-.04.16-.08.23-.2.36-.47.67-.8.92-.05.04-.11.07-.17.1-.19.1-.38.2-.57.3-.11.06-.21.11-.37.06-.04-.27-.19-.46-.43-.55-.02-.09.04-.11.07-.14.12-.1.25-.2.4-.32.14.05.27,0,.4-.09ZM158.05,31.6c.02-.12.03-.24.02-.35,0-.11.03-.19.11-.26.12-.11.25-.2.41-.26.13-.04.25-.05.39.03-.02.06-.02.12-.05.17-.08.11-.17.22-.27.32-.2.18-.4.36-.61.53-.15.12-.31.24-.34.45,0,.02-.05.03-.09.06-.03-.25.06-.45.17-.66.04.01.07.02.09.03.11.06.17.05.19-.06ZM157.81,30.16c-.26.03-.44-.14-.44-.39,0-.16-.02-.32.08-.47.02-.02.01-.06.02-.1-.06,0-.11.02-.18.03,0-.07-.02-.13-.01-.19.03-.33.15-.63.34-.89.01-.02.03-.03.04-.05.1-.1.21-.2.37-.16.16.04.21.17.25.31.07.24.06.47-.05.69-.02.05-.05.1-.07.15-.08.18-.1.35.02.52.07.1.1.21.15.34-.16.12-.33.19-.52.22ZM157.57,24.04c.18-.36.37-.71.61-1.03.17-.24.38-.45.63-.6.09-.06.19-.12.3-.05.12.08.11.21.08.32-.03.14-.08.27-.14.4-.21.45-.49.86-.77,1.28-.05.08-.12.14-.21.13-.21-.01-.38.07-.53.2-.01.01-.04,0-.07.01-.02-.23,0-.45.1-.66ZM157.6,25.15c.08-.13.17-.28.37-.31.03.05.08.1.1.15.09.23.11.46.1.7-.03.63-.11,1.24-.19,1.88-.49.09-.68.45-.87.85-.11-.08-.12-.2-.17-.28-.05-.09-.1-.19-.16-.3.04-.06.07-.16.12-.17.18-.04.2-.18.24-.31.01-.03.02-.06.02-.09-.04-.07-.12-.11-.11-.21.04-.68.18-1.33.55-1.91ZM154.44,19.18c.18.16.3.26.41.36-.04.25-.07.49-.11.72-.05.03-.08,0-.09-.05-.07-.27-.14-.54-.21-.81-.01-.05,0-.1,0-.23ZM154.49,21.17c.1.12.19.24.29.35.06.06.12.13.19.18.12.08.28,0,.28-.15,0-.08-.02-.17-.04-.25-.09-.35-.15-.7-.11-1.06.01-.13.03-.26.04-.39.11,0,.21-.02.33-.03.02.05.05.11.05.17.03.26.06.52.07.77,0,.13-.03.26-.05.38,0,.07-.03.15,0,.22.02.05.08.1.13.13.07.03.13-.01.16-.07.04-.08.07-.16.09-.24.14-.61.42-1.16.77-1.67.14-.2.31-.36.52-.47.12-.06.25-.12.37-.04.13.09.12.25.07.38-.08.21-.14.43-.25.63-.2.36-.42.71-.66,1.04-.15.2-.12.42-.15.64,0,.02.04.04.07.06.12-.16.23-.32.36-.46.41-.48.94-.76,1.54-.89.11-.03.24-.02.35-.02.07,0,.12.07.11.14-.02.09-.04.2-.09.27-.12.18-.25.35-.39.51-.24.26-.54.47-.85.65-.17.1-.34.19-.52.29-.06-.06-.11-.13-.17-.18-.18-.16-.37-.16-.56,0-.13.11-.22.24-.27.4-.04.1-.07.2-.12.33-.06-.07-.1-.13-.16-.18-.09-.09-.18-.19-.29-.26-.13-.08-.26-.14-.34-.28-.03-.06-.12-.09-.19-.11-.54-.23-1.04-.54-1.54-.83-.24-.14-.45-.31-.62-.52-.02-.03-.04-.07-.07-.14.42.07.8.14,1.15.31.2.1.36.24.5.4ZM152.67,18.1c.41.12.83.24,1.24.36.11.03.22.09.32.14.06.03.1.07.16.11-.26.21-.3.23-.58.15-.15-.04-.31-.1-.45-.17-.31-.15-.61-.31-.92-.48-.05-.03-.09-.08-.15-.13.15-.05.26-.03.38,0Z"/>
      <path class="cls-1" d="M136.05,64.62c.16.21.33.4.5.6.04.04.07.09.12.15-.13.05-.25.09-.35.14-.28.14-.37.39-.25.68.09.23.25.4.45.54.3.22.63.38.99.47.55.14,1.11.2,1.68.18.05-.01.09-.03.14-.03.17,0,.34,0,.51,0,.02-.02.02-.04.06-.05-.25-.26-.23-.57-.28-.85.18-.15.29,0,.44.07,0-.29.18-.48.35-.67.03-.03.07-.08.1-.08.21.02.3-.15.45-.27.05.04.11.07.13.12.12.22.14.46,0,.68-.16.26-.39.46-.65.63-.03.02-.08.01-.13.02-.04.06-.07.13-.11.19-.05.07-.06.13-.04.21.11,0,.23,0,.34,0,.14-.11.28-.17.45-.18.11,0,.22,0,.32-.01.19,0,.39-.01.58-.03.34-.03.62-.16.85-.42.05-.06.1-.11.15-.17.12-.17.24-.33.36-.5.08-.12.12-.26.05-.4-.03-.05-.08-.08-.16-.15-.03.17-.07.31-.24.34-.02,0-.04.02-.05.04-.07.14-.2.15-.33.17-.14.02-.28.04-.42.05-.04,0-.09.02-.1-.06.08-.06.17-.12.25-.19.21-.15.43-.3.62-.47.34-.29.67-.59.99-.89.19-.18.34-.39.44-.63.14-.33.1-.65-.07-.96-.09-.15-.22-.24-.39-.25-.24-.02-.48.01-.67.17-.12.1-.24.21-.36.32-.04.03-.05.1-.16.07.29-.26.42-.6.56-.93.05-.02.07-.04.1-.05.4-.13.69-.39.91-.74.26-.41.41-.86.49-1.33.01-.09.02-.17.02-.26-.01-.39-.3-.56-.65-.37-.05.03-.09.06-.13.09-.04.03-.08.05-.15.09,0-.16,0-.29,0-.42.11-.1.22-.19.32-.28.25-.22.45-.47.61-.75.1-.17.16-.35.2-.55.05-.31-.11-.53-.42-.56-.05,0-.13.05-.17-.05.03-.05.06-.1.1-.16.31-.49.55-1.01.72-1.56.08-.26.15-.52.19-.79.03-.15.02-.3,0-.45-.06-.3-.26-.44-.56-.4-.07,0-.14.07-.21,0-.06-.43-.06-.44-.39-.66.02-.07.05-.14.07-.21.09-.35.18-.69.25-1.04.03-.17.02-.35,0-.51-.02-.17-.12-.3-.3-.35-.04-.01-.08-.03-.13-.05.08-.08.15-.15.22-.21.17-.15.31-.33.41-.54.06-.12.1-.24.12-.37.04-.34-.16-.54-.5-.5-.09,0-.17.04-.25.06-.05,0-.1.01-.21.03.13-.12.2-.19.28-.26.27-.22.51-.47.73-.74.18-.23.29-.46.08-.74.11-.05.21-.09.3-.14.26-.15.47-.34.58-.63.14-.36.04-.61-.32-.75-.06-.02-.12-.04-.21-.07.1-.08.18-.14.27-.21.35-.26.68-.53.93-.9.1-.14.18-.3.23-.46.08-.22-.02-.41-.25-.48-.15-.04-.3-.06-.45-.03-.16.04-.31.08-.47.12-.05.01-.1.02-.19.04.06-.1.11-.18.15-.25.08-.13.17-.25.24-.39.06-.11.1-.24.11-.37,0-.12.04-.21.09-.3.14-.27.28-.54.4-.82.07-.17.1-.35.14-.53.03-.14,0-.28-.08-.41-.03-.05-.07-.11-.1-.15.12-.3.24-.58.34-.86.06-.16.14-.28.29-.37.33-.21.55-.51.73-.85.05-.09.09-.2.1-.31.05-.28-.12-.5-.4-.56-.06-.01-.14.02-.17-.08.06-.14.13-.29.19-.44.07-.16.14-.32.2-.48.11-.32.22-.63.32-.95.08-.24.08-.49.03-.74-.02-.09-.05-.19-.1-.27-.09-.15-.26-.21-.42-.14-.1.04-.19.1-.27.17-.25.2-.45.44-.59.72-.23.43-.44.87-.55,1.35,0,.03-.02.05-.04.09-.03-.02-.06-.03-.09-.05-.03-.02-.05-.05-.07-.07-.21-.16-.35-.18-.55-.01-.13.11-.26.24-.35.38-.37.59-.55,1.24-.5,1.94,0,.12.02.24.03.35-.21.24-.31.53-.44.8-.02.04-.02.11-.12.1,0-.04-.02-.09-.03-.14-.05-.28-.08-.56-.14-.83-.03-.13-.09-.27-.16-.39-.16-.3-.46-.25-.63-.03-.11.14-.16.31-.17.48-.01.17-.01.35.01.52.05.4.1.8.19,1.18.1.41.07.81-.03,1.22-.12.5-.23,1.01-.33,1.52-.03.15-.05.29,0,.45.04.12-.01.25-.14.36-.14-.63-.45-1.15-.77-1.66-.08-.14-.18-.27-.3-.38-.24-.21-.51-.12-.6.18-.04.14-.02.28,0,.42.1.58.29,1.13.54,1.66.14.3.28.61.42.91.02.04.02.08.03.12-.11-.08-.18-.17-.25-.27-.15-.22-.3-.45-.46-.67-.12-.16-.25-.33-.4-.47-.11-.11-.23-.19-.37-.26-.21-.11-.38-.02-.44.21-.04.14-.03.28.02.42.07.22.17.42.3.61.19.28.42.52.66.76.07.07.14.13.23.22-.06,0-.09,0-.11,0-.03,0-.06-.02-.09-.02-.17-.01-.27.07-.29.24,0,.11,0,.22.01.32.06.44.21.86.4,1.26.03.06.06.13.09.22-.1,0-.18-.02-.25-.02-.12,0-.22.04-.28.13-.13.18-.23.39-.25.62-.02.21-.03.42-.09.67-.09-.11-.16-.19-.23-.27-.1-.1-.19-.21-.31-.28-.21-.14-.44-.07-.53.16-.05.12-.07.25-.08.38-.06.54.04,1.06.18,1.57.05.19.13.37.22.54.05.09.14.16.22.23.05.04.12.04.17-.02.05-.06.05-.13,0-.17-.12-.09-.17-.22-.22-.35-.19-.56-.28-1.13-.25-1.72,0-.05,0-.11.02-.16.02-.06.01-.13.11-.15.05.05.12.1.18.17.11.13.21.28.31.42.15.2.25.43.24.69,0,.09.01.17.03.26.03.13,0,.25-.06.37-.14.24-.21.5-.24.77-.04.32-.05.65-.02.97,0,.05.04.1-.03.15-.15-.23-.28-.46-.43-.68-.16-.23-.35-.44-.52-.65.04-.02.08-.04.12-.07-.02-.03-.04-.06-.06-.07-.03-.02-.08-.06-.11-.06-.17,0-.28-.09-.4-.18-.04-.03-.09-.06-.14-.08-.2-.08-.38.03-.38.24,0,.14.03.28.07.41.16.49.42.92.73,1.33.12.16.26.32.39.49-.1.14-.21.29-.21.47,0,.18.01.36.02.54-.11.01-.14-.07-.2-.11-.19-.14-.38-.28-.58-.42-.07-.05-.15-.09-.23-.11-.21-.07-.38.04-.39.25-.01.29.07.57.27.78.14.14.23.31.34.47.15.23.31.47.47.7.04.06.09.12.14.18-.18.21-.15.43-.02.64.08.13.17.25.28.35.18.17.38.32.57.48.09.07.09.07.03.24-.18-.14-.37-.26-.53-.42-.39-.4-.83-.73-1.28-1.04-.3-.2-.59-.23-.92-.01.06.22.12.45.19.7-.13-.07-.22-.13-.32-.17-.12-.05-.24-.09-.37-.13-.12-.03-.24,0-.34.08-.08.06-.11.17-.07.26.03.07.07.13.12.19.09.13.19.27.29.39.55.73,1.1,1.45,1.76,2.08.15.14.29.29.42.45.22.26.41.53.56.83.05.1.07.2.05.31-.06.37-.04.73.02,1.1.01.07.02.15.04.22-.03,0-.04,0-.05,0-.26-.37-.51-.74-.77-1.12.19-.23.19-.5.12-.79-.05-.21-.14-.41-.25-.59-.18-.29-.41-.53-.69-.73-.06-.04-.14-.09-.16-.15-.05-.16-.18-.24-.32-.29-.24-.09-.5-.15-.76-.16-.12,0-.2.04-.28.13-.11.13-.11.25-.05.39.27.59.58,1.16,1.05,1.62.1.09.16.19.19.32.05.2.13.39.2.58.01.04.02.08.04.15-.09-.03-.14-.05-.2-.07-.08-.02-.16-.06-.25-.07-.22-.03-.38.11-.36.34,0,.05.02.11.03.16.05.14.1.29.14.43.01.04.02.09.03.14-.25-.04-.49-.1-.72-.12-.24-.02-.38.16-.32.4.03.11.08.23.15.32ZM139.48,67.06c-.09.08-.19.07-.28.06-.49-.06-.99-.1-1.47-.22-.35-.09-.67-.23-.97-.44-.13-.09-.25-.21-.33-.35-.08-.15-.05-.25.1-.31.14-.05.29-.08.44-.12.1-.02.19,0,.28.05.17.09.34.19.52.26.46.2.82.33,1.66.44.13.21.03.42.05.61ZM137.93,65.67c0-.08.06-.07.09-.07.31,0,.6.1.82.32-.08,0-.16,0-.23-.02-.24-.05-.47-.13-.69-.24ZM140.19,64.86c-.06.19-.13.37-.19.55-.01.03-.02.06-.03.09-.03-.01-.05-.02-.08-.03-.08-.47-.16-.94-.25-1.4-.03-.16-.05-.32-.08-.48-.06-.34-.1-.69-.04-1.03.03-.18.08-.36.15-.53.05-.12.13-.22.22-.31.17-.18.29-.15.38.08.03.08.05.16.07.25.2.95.13,1.89-.15,2.82ZM140.88,65.05c-.05.06-.1.14-.25.13.01-.16.02-.3.04-.43.12-.81.36-1.58.71-2.31.13-.27.31-.52.54-.72.06-.05.12-.1.19-.13.13-.07.26-.03.34.09.04.06.07.13.09.2.05.19.04.38,0,.58-.08.41-.26.78-.49,1.12-.21.3-.45.58-.67.87-.16.2-.33.4-.5.6ZM142.75,57.17s.11.02.14-.01c.06-.05.13-.12.15-.2.07-.18.11-.37.16-.56.02-.07.03-.15.04-.22.02-.1.1-.14.18-.17.06-.02.11,0,.14.05.06.11.1.22.08.34-.03.15-.05.3-.1.44-.15.47-.41.88-.72,1.26-.21.25-.42.49-.63.74-.18.22-.34.45-.52.67-.04.04-.09.07-.17.13,0-.09-.02-.14-.01-.19.25-.96.62-1.86,1.17-2.69.02-.03.04-.05.07-.07.08.03.05.09.03.13-.02.07-.07.14-.08.21,0,.04.02.12.05.14ZM141.54,60.4c.1.58-.05,1.24-.37,1.57-.14-.07-.18-.2-.19-.34,0-.11,0-.22.02-.32.04-.35.11-.7.23-1.05.11.04.2.08.32.13ZM141.06,62.37c-.06.17-.12.33-.27.47-.02-.21-.04-.42-.06-.63,0-.02.01-.04.02-.05.01,0,.02,0,.03,0,.09.07.18.15.28.23ZM142.44,66.39c-.11.2-.2.29-.37.33-.28.07-.56.11-.92.11.11-.13.17-.21.24-.29.36.02.69-.16,1.05-.15ZM142.76,63.65c.16-.21.32-.41.53-.57.14-.1.29-.14.46-.14.1,0,.16.05.21.13.11.19.13.38.06.59-.06.18-.17.33-.29.47-.31.35-.66.65-1.02.94-.32.25-.66.48-1,.72-.03.02-.07.04-.13.06-.03-.08-.04-.16-.07-.22-.04-.09-.02-.17.02-.25.12-.23.24-.46.4-.66.29-.35.56-.71.84-1.07ZM142.8,61.51q-.46-.33-.89-.21c-.04-.21,0-.41.05-.6.05-.17.13-.34.2-.51.03-.07.06-.14.1-.2.05-.09.13-.14.24-.15.04,0,.09-.02.13-.01.27.03.51-.05.73-.21.02-.02.06-.02.11-.04,0,.25.02.49-.11.69-.23.37-.39.77-.51,1.18,0,.02-.02.04-.03.05ZM144.17,59.88s.08-.03.14-.05c0,.08.03.14.02.2-.08.51-.24.98-.54,1.41-.14.2-.33.34-.55.44-.04.02-.1.02-.15.03-.01-.05-.03-.08-.02-.11.05-.47.18-.91.39-1.33.03-.06.06-.12.11-.16.2-.15.4-.29.61-.43ZM144.33,57.54c.06-.03.13-.05.18,0,.03.04.03.1.02.15-.03.1-.06.21-.11.31-.18.36-.45.66-.76.91-.04.03-.1.05-.14.07-.04.02-.08.04-.1.07-.09.19-.27.28-.43.39-.11.08-.24.09-.37.04-.03-.24.13-.38.27-.54-.25.01-.37.2-.49.38-.07-.07-.02-.13.01-.17.14-.18.29-.35.44-.52.07-.08.14-.17.21-.25.03-.03.07-.07.1-.07.21.03.3-.14.43-.25.15-.12.29-.26.44-.38.09-.07.21-.12.31-.17ZM144.15,53.48s.04.09.04.14c0,.25-.04.49-.23.69-.2.21-.37.45-.47.73-.04.11-.06.23-.06.35,0,.04.05.1.09.11.04,0,.11-.02.13-.06.04-.05.07-.12.06-.18,0-.12.05-.21.11-.3.16-.25.35-.47.57-.65.09-.07.19-.14.3-.2.18-.09.29-.03.3.18,0,.14,0,.28-.04.42-.19.75-.45,1.46-.88,2.11-.1.15-.11.24-.08.47-.04.03-.08.06-.12.09-.04.03-.09.05-.13.08-.05-.08,0-.13.03-.19.07-.21.14-.41.2-.61.05-.17.04-.34.01-.51-.07-.38-.27-.52-.69-.5-.08-.33-.12-.66-.33-.94.06-.05.12-.1.18-.15.2-.15.37-.33.5-.55.09-.16.23-.28.3-.46.03-.07.11-.1.21-.07ZM144.08,51.32c.09.08.09.18.08.27-.02.33-.07.66-.2,1-.13-.18-.25-.34-.44-.41-.07.05-.09.12-.06.2.03.07.06.14.1.2.09.18.11.37.06.57-.11.44-.32.82-.68,1.12-.06.05-.14.09-.21.13-.09-.08-.06-.17-.05-.25.07-.55.32-1.01.7-1.4.03-.03.06-.06.09-.08-.03-.09-.1-.07-.14-.05-.1.06-.2.12-.29.2-.1.09-.19.21-.31.35,0-.09,0-.14,0-.18.03-.17.07-.34.11-.51.03-.13,0-.26-.04-.38-.1-.25-.27-.35-.53-.31-.07,0-.15.03-.22.04-.02-.03-.04-.04-.04-.06,0-.03,0-.06,0-.11.06-.01.12-.03.18-.04.06-.01.12-.03.2-.05-.05-.06-.1-.11-.13-.16-.12-.18-.08-.35.03-.51.09-.13.21-.22.35-.28.12-.05.21-.02.27.09.04.07.06.14.08.21.06.22.07.45.02.68-.03.17-.08.34-.11.51-.03.14-.04.27.04.41.12-.05.22-.08.32-.12.01-.32.18-.57.38-.8.11-.13.23-.25.42-.29ZM141.95,53.9c-.09.12-.19.23-.36.3-.07-.21-.02-.38,0-.55.03-.31.1-.62.13-.93.03-.26.19-.4.4-.51.28-.14.38-.08.34.24-.07.51-.2,1.01-.51,1.45ZM142.37,53.96c0,.22-.02.41-.02.58-.17.21-.32.41-.48.62,0,0-.02,0-.03,0,0,0-.01-.02-.02-.03-.04-.19-.08-.38-.12-.56.15-.11.27-.18.37-.28.1-.09.19-.2.3-.33ZM143.92,49.75c.15-.05.31-.09.46-.07.06.1.03.18,0,.26-.07.17-.18.32-.31.45-.11.11-.22.2-.33.31-.05.05-.11.1-.16.16-.05.07-.02.14.07.17.04.01.08.01.15.02-.13.11-.24.21-.35.31-.08-.03-.06-.09-.07-.14-.03-.14-.05-.28-.08-.41-.09-.34-.28-.56-.67-.54-.01-.06-.02-.11-.03-.16.46-.07.88-.22,1.32-.35ZM145.99,41.98c-.2.39-.41.78-.62,1.17-.05.1-.11.19-.16.28-.03.06-.08.12-.07.18.03.19-.08.3-.19.42-.23.26-.46.52-.69.77-.03.04-.08.06-.12.1l-.04-.04c.05-.12.11-.23.16-.35.16-.39.33-.77.48-1.17.11-.29.17-.6.1-.92.16-.18.16-.44.34-.61.16-.15.31-.33.52-.46.03.02.06.05.09.07.03.02.05.03.09.05.07-.06.15-.11.25-.19,0,.08.02.13.02.17-.02.18-.08.36-.16.52ZM146.2,37.7s.03-.09.02-.12c-.06-.18,0-.34.06-.51.15-.47.36-.9.63-1.31.16-.25.34-.41.62-.57.03.08.06.13.07.19.04.2.01.39-.04.58-.05.18-.1.35-.17.52-.22.54-.44,1.08-.67,1.62-.02.06-.06.12-.1.16-.11.12-.23.22-.34.33-.07,0-.06-.06-.06-.1-.01-.17-.02-.34-.04-.52,0-.1-.03-.19.03-.28ZM146.05,39.28c.02-.08.05-.16.08-.26.12-.02.26-.02.31-.17,0-.03.05-.07.07-.06.2.02.24-.15.32-.27.02-.03.06-.07.09-.09.13-.07.27-.16.42-.09.09.04.07.21-.04.42-.14.26-.32.49-.56.73-.03-.04-.05-.07-.07-.09-.15-.13-.25-.14-.4-.05-.08.05-.15.11-.25.18-.05-.1,0-.17.03-.25ZM145.97,40.07s.07.02.07.03c.1.24.1.48-.05.71-.02.04-.05.08-.09.09-.27.12-.5.28-.74.51,0-.16.06-.25.1-.34.04-.09.09-.17.14-.25.06-.09.09-.19.22-.22.09-.02.17-.08.25-.13.03-.13.06-.26.09-.4ZM144.94,38c.12-.28.26-.54.54-.71.17.07.23.2.27.35.14.42.17.85.05,1.27-.08.29-.19.57-.29.86-.05.14-.13.27-.28.37-.1-.27-.22-.52-.57-.53-.08-.59.05-1.11.26-1.61ZM143.93,41.61c0-.06.01-.13.03-.19.14-.44.29-.88.52-1.28.01-.02.03-.03.05-.05.11,0,.23,0,.35,0,.07.16.06.32.03.48-.09.47-.25.91-.45,1.34-.04.08-.09.14-.17.18-.12.06-.23.15-.38.24.01-.27.02-.5.03-.72ZM143.18,42.78c.03-.15.07-.29.1-.44.05-.22.05-.45.01-.68-.08-.46-.15-.92-.22-1.38-.02-.17-.02-.34-.02-.52,0-.13.04-.25.14-.34.11.04.13.13.16.21.05.17.09.33.11.5.05.39.09.77.13,1.16.03.26,0,.52-.09.76-.06.16-.1.33-.14.5-.03.1-.06.22-.05.32.05.35-.16.58-.33.84,0,0-.01,0-.02,0,.07-.31.15-.63.22-.94ZM142.44,47.01s.02-.04.03-.06c.13-.2.13-.21.14-.5,0-.49.09-.97.25-1.43.24-.72.55-1.41.99-2.04.12-.18.28-.33.42-.49.04-.04.11-.06.18-.1.1.17.1.34.07.51-.02.13-.06.25-.11.37-.14.36-.28.73-.45,1.08-.33.68-.67,1.36-1,2.04-.05.11-.1.22-.13.33-.01.03,0,.1.03.11.04.01.1,0,.15-.01.04-.02.06-.06.09-.09.04-.06.08-.13.12-.19.46-.74,1.08-1.32,1.79-1.81.33-.23.7-.38,1.12-.4.07,0,.14.01.24.02-.03.09-.04.17-.07.23-.14.26-.34.47-.56.67-.41.37-.87.64-1.37.85-.17.07-.34.14-.51.21-.12.05-.3.04-.24.26-.06.05-.12.09-.17.14-.01.01-.02.04-.02.06.01.02.05.06.06.06.12-.03.25-.06.37-.1.24-.09.48-.2.72-.28.16-.05.34-.07.51-.08.08,0,.17,0,.26.02.2.05.25.18.18.37-.09.22-.26.37-.46.48-.27.14-.55.19-.85.17-.27-.02-.54-.05-.8-.09-.11-.02-.22-.07-.32-.1-.17.27-.03.52.07.78-.05.05-.1.11-.16.16-.28.25-.54.53-.74.85-.04.06-.07.13-.08.2,0,.03.03.07.06.1.02.01.07.01.09,0,.09-.09.17-.19.26-.29.18-.2.37-.39.56-.59.11-.11.24-.18.4-.16.05-.1.07-.21.19-.26.17-.07.34-.15.5-.22.11-.05.21-.03.31.02.14.08.18.19.07.32-.17.2-.34.39-.53.57-.38.35-.8.67-1.26.9-.05.02-.09.05-.14.08-.14.07-.23.17-.2.33-.11.07-.21.14-.32.21-.04-.05-.06-.11-.1-.16-.03-.04-.07-.08-.12-.12.03-.15.08-.3,0-.44.04-.32.08-.64.12-.96,0-.06.05-.13.04-.19-.03-.23.04-.45.11-.67.07-.23.15-.45.23-.67ZM141.37,44.54c-.15-.35-.23-.72-.3-1.09-.02-.08-.05-.17.03-.24.2.12.4.42.73,1.14.26.56.45,1.56.36,2-.04-.03-.06-.04-.07-.06-.25-.58-.51-1.17-.76-1.75ZM140.44,45.62c-.1-.15-.18-.32-.26-.48-.04-.08-.06-.16,0-.27.07.04.14.06.19.11.14.14.29.29.41.45.19.24.36.49.53.73.2.29.44.53.79.64.02,0,.03.03.06.06-.02.05-.04.1-.06.15-.04,0-.06.02-.08.01-.31-.14-.55-.37-.81-.58-.29-.24-.56-.51-.77-.83ZM140.96,47.34s.05,0,.06,0c.21.22.41.44.62.66.09.1.13.22.11.35-.03.21-.05.42-.08.64-.34-.35-.69-1.17-.7-1.66ZM141.53,55.84c.02.14.03.28,0,.42-.05.21-.08.42-.13.69-.01-.17-.01-.27-.03-.37-.04-.24-.07-.49-.12-.73-.07-.27-.21-.5-.52-.57-.04-.37-.07-.73.24-1.02.17.03.24.15.28.29.07.25.14.5.19.75.04.18.06.36.09.54ZM140.54,50.18c.03-.26.08-.51.13-.77.02-.11.04-.21.15-.28.18.02.26.14.3.29.08.25.13.5.11.77-.01.22-.04.43-.04.65,0,.22-.05.45.06.67.03.05.01.13.01.19,0,.11,0,.22,0,.32.01.22.01.22.13.44-.03.07-.06.15-.09.23-.04.13-.06.25.02.37.03.05.04.12.03.18-.03.21-.06.42-.1.65-.05,0-.11,0-.13-.02-.03-.04-.06-.09-.06-.14,0-.18.03-.37.04-.55.03-.34,0-.67-.05-1-.03-.19-.11-.37-.18-.55-.02-.06-.07-.11-.02-.18,0-.01-.01-.05-.03-.06-.17-.08-.15-.23-.1-.36.06-.14.07-.27.06-.41,0-.03-.02-.06-.04-.1-.1.12.03.3-.13.37-.1-.03-.11-.12-.11-.21,0-.17,0-.35.03-.52ZM140.48,52.3c.02-.1.07-.15.2-.15.12.2.13.41.1.6-.06.36-.17.71-.28,1.05-.1,0-.09-.07-.09-.12-.06-.46,0-.92.08-1.38ZM140.61,55.84c.02-.06.07-.12.15-.1.07.01.12.05.14.12.04.12.08.25.1.38.06.37.06.73-.02,1.09-.09.45-.19.89-.34,1.31-.12.32-.23.65-.35.98-.04.1-.06.2-.17.31-.06-.27-.1-.52-.1-.76-.02-.91.11-1.81.35-2.69.06-.22.16-.42.24-.63ZM140.29,55.69c-.1.26-.21.54-.31.83-.02-.03-.03-.06-.05-.06-.15-.01-.21-.11-.28-.22-.21-.35-.33-.72-.36-1.13-.01-.12-.02-.24.09-.35.05.02.12.03.16.07.12.12.24.25.35.37.13.15.26.31.41.49ZM138.88,52.93c.27.22.61.74.68,1.06-.3-.2-.66-.75-.68-1.06ZM138.3,55.94c.03-.08.07-.17.1-.27-.1-.06-.13.07-.25.02-.07-.12-.16-.27-.2-.47.18.04.29.14.4.23.51.4.91.89,1.22,1.45q.11.2.13.45c-.24-.12-.47-.22-.65-.4-.26-.26-.53-.62-.75-1.02ZM138.98,57.5c.04-.05.09-.07.14-.04.21.12.41.24.64.37-.01.19-.03.4-.05.66-.48-.45-.65-.67-.73-.99ZM138.38,58.4c.14.09.28.16.4.27.28.27.54.56.76.89-.03,0-.06,0-.08,0-.45-.31-.85-.68-1.19-1.12,0-.01,0-.04-.01-.08.05.02.09.03.12.05ZM136.47,58.23c.05-.07.09-.04.13-.02.09.05.19.1.28.16.82.57,1.52,1.24,2,2.13-.08.05-.12-.06-.2-.05-.04.23.17.38.22.64-.92-.91-1.72-1.85-2.42-2.86ZM138.22,59.03c-.07-.07-.13-.14-.16-.24-.03-.08-.1-.14-.15-.2-.16-.2-.33-.39-.41-.64.06-.07.11-.02.14.01.07.08.14.16.19.25.42.73,1.02,1.28,1.7,1.76.05.04.11.06.18.08.05.02.1.02.15.02.09.1.08.21.08.31,0,.08.03.15.11.18.09.03.18,0,.23-.07.06-.08.1-.17.14-.25.41-.98.77-1.97.94-3.08.05.1.07.15.09.2.02.05.03.11.07.14.03.03.1.05.14.04.03,0,.06-.06.07-.1.01-.03,0-.06,0-.1-.05-.22-.01-.43.02-.64.07-.43.19-.84.36-1.24.08-.19.18-.37.33-.52.11-.11.21-.1.29.03.06.1.1.21.14.32.03.09.03.19.05.29.04.2,0,.36-.16.52-.42.43-.68.97-.93,1.51-.29.61-.47,1.25-.62,1.91-.02.09-.04.19-.08.28-.24.47-.36.97-.45,1.48-.02.1-.03.21-.06.35-.06-.09-.1-.16-.14-.21-.14-.17-.31-.22-.52-.14-.09.03-.17.08-.26.13-.3-.88-.79-1.68-1.46-2.39ZM139.03,64.22c.1.25.18.5.27.76-.01.01-.03.02-.04.04-.03-.03-.07-.05-.1-.08-.15-.19-.29-.37-.43-.56-.04-.05-.07-.11-.09-.17-.05-.18-.16-.33-.28-.47-.08-.09-.15-.19-.2-.29-.12-.22-.23-.44-.34-.66-.03-.06-.04-.14-.06-.21.14-.03.21.04.27.11.41.46.77.96,1,1.54ZM137.35,61.8c-.39-.36-.67-.78-.92-1.22-.06-.1-.07-.22-.07-.36.1-.03.17-.04.26.03.16.13.33.24.5.35.27.17.52.34.72.59.18.22.31.47.38.74.03.11.06.23-.05.35-.1-.09-.2-.17-.29-.26-.15-.14-.32-.27-.53-.23ZM137.19,63.33c.27.1.5.25.72.42.07.06.12.15.17.23.21.35.45.68.73.99.05.06.1.11.15.17.16.15.18.16.44.15.02.1.03.21.05.34-.06-.01-.11-.01-.14-.03-.22-.15-.44-.3-.67-.46,0-.05-.02-.1-.03-.16-.05.02-.11.05-.15.04-.06-.01-.12-.05-.17-.08-.22-.15-.44-.31-.66-.47-.03-.03-.07-.05-.09-.09-.23-.31-.37-.65-.47-1.03.05,0,.09-.03.11-.02ZM136.35,64.24c.43.08.82.26,1.14.56.13.12.27.24.46.41-.18.01-.3.02-.41.03q-.36.03-.64-.2c-.22-.18-.41-.38-.57-.61-.03-.05-.05-.11-.09-.17.05,0,.08-.03.11-.02Z"/>
      <path class="cls-1" d="M150.58,103.99c-.66-1.08-1.24-2.2-1.86-3.3-.23-.41-.43-.85-.66-1.26-.36-.64-.64-1.32-.94-1.99-.05-.11-.09-.22-.13-.33-.32-.84-.63-1.68-.95-2.52-.19-.51-.39-1.01-.57-1.52-.17-.47-.32-.94-.49-1.41-.09-.25-.2-.5-.3-.75-.03-.08-.05-.17-.07-.25.1-.14.02-.29.04-.44.08-.64.3-1.21.73-1.7.41-.47.76-1,1.06-1.55.08-.14.15-.29.2-.44.16-.49.33-.99.44-1.49.22-.98.41-1.97.56-2.96.15-.99.15-1.98-.07-2.96-.14-.62-.35-1.2-.66-1.75-.07-.12-.15-.24-.25-.34-.14-.14-.33-.13-.45.02-.06.07-.11.16-.15.25-.08.17-.14.34-.22.51-.01.03-.05.05-.08.07.02-.49.06-.99.08-1.48.02-.5.05-1,.03-1.49-.05-1.25-.21-2.48-.48-3.7-.1-.48-.26-.94-.46-1.38-.06-.14-.15-.27-.24-.38-.12-.14-.29-.13-.44-.02-.11.08-.17.2-.2.33-.04.18-.08.36-.1.54-.07.76-.15,1.53-.21,2.29-.07.93-.13,1.86-.21,2.78-.06.66-.14,1.31-.22,1.97-.1.8-.18,1.61-.31,2.41-.12.74-.14,1.48-.1,2.23.03.6.04,1.21.06,1.82,0,.05,0,.11-.02.16,0,.01-.03.02-.06.04-.23-.71-.39-1.44-.58-2.16-.09-.32-.15-.65-.24-.98-.13-.49-.23-.99-.29-1.5-.1-.78-.2-1.57-.3-2.35-.03-.26-.09-.51-.16-.76-.17-.59-.3-1.2-.32-1.82,0-.08-.02-.15-.03-.23-.04-.26-.08-.51-.11-.77-.03-.26-.05-.52-.07-.78-.03-.33-.04-.67-.07-1-.02-.26-.04-.52-.07-.77-.08-.64-.23-1.28-.22-1.93,0-.09-.04-1.36-.05-1.44-.01-.08,0-.17-.01-.25-.07,0-.13,0-.2,0,0,.15.03,1.49.05,1.65.04.34.04.69.08,1.04.03.3.09.6.12.9.05.52.07,1.04.12,1.55.05.62.06,1.25.18,1.87,0,.04.02.09.02.13,0,.72.18,1.41.35,2.1.1.39.13.79.19,1.18.11.79.2,1.59.31,2.38.04.26.11.51.17.76.1.44.21.88.32,1.32.13.5.26,1,.39,1.51.07.28.14.57.21.85.14.56.28,1.11.42,1.67.27,1.06.54,2.11.82,3.17.12.48.25.96.38,1.44.03.1.06.21.11.31.29.64.49,1.31.72,1.98.21.6.45,1.19.67,1.79.29.77.57,1.54.86,2.31.06.15.11.31.18.45.29.64.55,1.29.9,1.91.25.43.45.89.69,1.32.6,1.08,1.17,2.17,1.82,3.22.12.19.25.38.37.57.09.14.16.28.25.42.06.09.11.19.18.27.06.08.15.12.26.08q.13-.36.08-.6c.11-.06.2-.15.19-.3-.06-.06-.08.05-.17,0-.1-.12-.17-.29-.22-.48-.13-.53-.29-1.04-.5-1.54-.08-.18-.17-.35-.24-.53-.09-.23-.18-.46-.24-.7-.24-1.01-.46-2.02-.68-3.04-.06-.26-.09-.53-.12-.8-.07-.61-.16-1.22-.21-1.84-.09-1.18-.17-2.35-.25-3.53-.05-.73-.08-1.47-.08-2.21,0-.82.03-1.64.1-2.46.07-.91.15-1.81.22-2.72.07-.97.22-1.93.37-2.89.23-1.42.51-2.83.84-4.23.24-.99.51-1.97.76-2.95.16-.64.31-1.28.48-1.92.49-1.87,1-3.74,1.49-5.61.2-.76.38-1.53.58-2.29.13-.52.28-1.04.42-1.57.12-.44.25-.87.37-1.31.2-.74.41-1.48.59-2.22.3-1.28.57-2.57.76-3.88.12-.81.24-1.63.34-2.44.06-.49.27-2.07.32-2.55-.12,0-.24-.02-.36-.02,0,.08-.01.16-.02.23-.13,1.36-.49,3.8-.7,5.14-.18,1.11-.41,2.21-.66,3.31-.1.42-.21.84-.31,1.26-.02.07-.05.13-.1.24,0-.09-.01-.12-.01-.15.08-.69.08-1.38,0-2.07-.04-.33-.06-.67-.11-1-.06-.46-.11-.93-.2-1.38-.19-.89-.42-1.77-.68-2.64-.34-1.08-.66-2.17-.94-3.27-.08-.31-.17-.63-.32-.92-.05-.1-.11-.21-.19-.3-.15-.17-.38-.2-.55-.05-.09.08-.16.18-.22.28-.13.23-.18.48-.22.74-.11.7-.13,1.4-.1,2.1.03.61.08,1.21.19,1.81.15.8.33,1.59.55,2.37.14.52.39,1.01.63,1.49.41.83.83,1.66,1.23,2.5.27.58.51,1.17.53,1.82,0,.15,0,.3-.04.45-.07.24-.15.48-.21.72-.26,1.01-.52,2.03-.78,3.05-.34,1.32-.69,2.64-1.03,3.95-.26.98-.52,1.96-.78,2.95-.1.38-.19.76-.29,1.13-.24.94-.5,1.88-.73,2.82-.43,1.76-.75,3.53-1.03,5.32-.12.73-.17,1.46-.24,2.19-.11,1.33-.25,2.65-.29,3.98-.02.8,0,1.6,0,2.4.01.57.06,1.15.1,1.72.07.94.13,1.88.21,2.82.05.55.12,1.1.19,1.64.04.32.09.64.16.96.16.76.34,1.52.51,2.28.25,1.06.56,2.11,1.01,3.11.07.16.13.33.13.52-.13-.05-.16-.18-.22-.28ZM143.41,79.31c.09-.49.13-.98.19-1.48.08-.65.16-1.31.23-1.96.05-.49.08-.99.12-1.49.06-.79.11-1.57.16-2.36,0-.06.02-.12.03-.18.13.53.18,1.07.17,1.61,0,.59-.01,1.19-.03,1.78-.05,1.31-.1,2.61-.34,3.9-.16.89-.39,1.77-.61,2.65-.01.05-.01.11-.09.13-.01-.14-.04-.28-.03-.42.03-.73.07-1.47.2-2.19ZM143.82,85.39c-.12.44-.15.89-.1,1.35.02.14.02.28.04.46-.14-.19-.17-.38-.22-.55-.12-.45-.22-.9-.34-1.35-.03-.11-.04-.21-.03-.32.02-.23.04-.45.04-.68.01-.72.16-1.42.34-2.11.23-.92.49-1.84.68-2.77.16-.79.26-1.58.3-2.38.04-.76.05-1.51.06-2.27,0-.69-.03-1.39-.13-2.07-.04-.31-.13-.61-.19-.92,0-.02,0-.05-.02-.06-.15-.17-.11-.36-.09-.55.04-.41.09-.82.14-1.22.01-.11.03-.21.14-.3.13.06.16.17.2.27.17.42.32.85.42,1.3.25,1.19.42,2.39.46,3.6.02.6-.02,1.21-.05,1.82-.02.54-.04,1.08-.12,1.62-.16,1.07-.36,2.14-.74,3.15-.28.74-.61,1.46-.92,2.18-.1.24-.21.48-.29.72-.13.46-.12.92,0,1.38,0,.02.03.03.06.07.05-.1.06-.2.07-.3.04-.65.24-1.25.52-1.83.14-.3.28-.61.41-.92.06.08,0,.13,0,.19-.22.84-.43,1.67-.65,2.51ZM146.7,79.28c-.1.52-.19.99-.24,1.48-.12,1.33-.42,2.62-.96,3.85-.3.68-.52,1.4-.74,2.11-.21.68-.38,1.37-.45,2.15-.05-.08-.07-.11-.08-.15-.12-.74-.2-1.48-.22-2.23-.01-.29.01-.59.09-.87.26-.97.48-1.95.77-2.91.26-.84.49-1.68.72-2.52.13-.47.21-.95.32-1.42.1-.44.22-.88.42-1.29.03-.06.06-.11.1-.19.05.04.1.07.12.11.27.48.51.98.62,1.53.07.36.15.72.2,1.08.09.64.02,1.27-.07,1.91-.14,1.03-.34,2.05-.58,3.06-.11.48-.27.96-.42,1.43-.04.14-.11.28-.18.41-.28.53-.62,1.01-1,1.48-.14.18-.27.36-.41.55-.04.06-.08.12-.17.24,0-.13,0-.19.02-.25.1-.74.31-1.46.54-2.17.23-.73.5-1.45.8-2.16.46-1.07.74-2.19.83-3.35.03-.45.04-.91.06-1.36,0-.16,0-.32-.1-.5ZM151.74,54.22c.33,1.57.84,3.09,1.45,4.57.16.38.29.77.43,1.15.02.05.02.1,0,.16-.03-.04-.06-.08-.08-.13-.47-.97-.94-1.95-1.41-2.92-.2-.42-.32-.87-.43-1.33-.18-.73-.36-1.47-.47-2.22-.09-.58-.13-1.16-.14-1.75,0-.54,0-1.08.1-1.62.03-.19.1-.38.16-.56.03-.1.09-.2.21-.23.12.04.16.14.2.24.1.27.22.54.29.83.35,1.37.77,2.73,1.15,4.09.34,1.18.62,2.37.7,3.59.02.36.07.71.1,1.07.01.14.03.27,0,.42-.03-.02-.05-.03-.06-.05-.31-.77-.62-1.55-.91-2.32-.46-1.21-.82-2.46-1.16-3.71-.08-.28-.12-.57-.17-.86-.02-.09-.04-.19-.07-.28-.09.11-.08.23-.08.34,0,.51.08,1.01.19,1.51Z"/>
      <path class="cls-1" d="M173.59,70.29c-.03-.17-.19-.25-.35-.17-.09.05-.18.12-.26.19-.15.14-.29.29-.43.44-.28.32-.55.64-.82.97-.53.66-1.08,1.3-1.66,1.91-.38.39-.75.78-1.13,1.17-.63.65-1.14,1.38-1.57,2.18-.28.52-.58,1.04-.89,1.55-.43.7-.94,1.35-1.47,1.98-.46.53-.91,1.07-1.47,1.51-.72.57-1.44,1.14-2.17,1.7-.5.38-.99.77-1.43,1.22-.16.16-.32.32-.49.48-.03.03-.06.09-.15.06.07-.1.13-.2.19-.3.92-1.35,1.54-2.82,1.77-4.45.09-.68.13-1.36,0-2.03-.06-.29-.12-.57-.18-.86-.08-.39-.23-.74-.43-1.08-.07-.11-.14-.22-.23-.31-.22-.23-.42-.21-.57.06-.07.12-.12.25-.17.39-.27.79-.47,1.6-.65,2.41-.14.65-.27,1.31-.41,1.97-.19.88-.48,1.73-.72,2.59-.18.65-.41,1.27-.67,1.89-.15.37-.29.74-.43,1.12-.17.46-.34.91-.51,1.37-.04.12-.09.24-.13.37-.06.17-.08.33.05.48-.02.04-.03.07-.04.1-.22.41-.44.82-.66,1.23-.01.03-.05.04-.1.08,0-.16.01-.29.02-.42.03-.41.04-.82.08-1.23.09-.86.19-1.72.28-2.58.08-.73.14-1.46.23-2.19.09-.75.16-1.51.17-2.26,0-.38,0-.76,0-1.14,0-.65.02-1.3-.02-1.95-.07-1.22-.17-2.44-.27-3.66-.02-.29-.11-.57-.18-.85-.02-.07-.06-.14-.1-.2-.05-.07-.16-.09-.23-.05-.07.04-.14.1-.19.17-.05.07-.08.15-.12.23-.33.68-.59,1.39-.83,2.11-.5,1.46-.98,2.93-1.37,4.43-.12.47-.19.95-.19,1.44,0,.43.02.86.01,1.3,0,.72.06,1.43.13,2.14.03.27.07.54.11.8.08.49.18.98.25,1.47.09.68.16,1.35.23,2.03.02.17.05.34.08.51.05.35.11.71.14,1.06.05.59.09,1.19.12,1.78.01.29,0,.58,0,.87.04.03.08.05.13.09-.16.46-.3.93-.48,1.38-.22.59-.4,1.19-.54,1.8-.09.36-.14.72-.22,1.08-.13.59-.25,1.19-.28,1.79,0,.16,0,.33-.04.48-.07.35-.1.71-.12,1.06-.02.5-.09.99-.06,1.49.02.26.01.52.02.78,0,.07,0,.15,0,.24-.02-.02-.04-.03-.04-.04-.12-.46-.23-.92-.34-1.38-.18-.76-.38-1.51-.63-2.24-.29-.84-.43-1.72-.64-2.58,0-.02,0-.04-.01-.06-.05-.57-.22-1.12-.32-1.69-.09-.46-.18-.91-.2-1.38-.02-.4-.08-.8-.12-1.19-.02-.15-.05-.3-.06-.45-.03-.44-.05-.89-.07-1.33-.02-.41-.06-.82,0-1.23.01-.11,0-.22,0-.32-.07-.87-.07-1.75-.07-2.62,0-.33.03-.67.05-1,.04-.5.08-.99.12-1.49.01-.18.04-.37.05-.55.02-.31.02-.63.06-.94.05-.45.11-.9.17-1.35.06-.5.17-1,.25-1.5.03-.18.07-.36.1-.54.07-.4.17-.78.29-1.16.05-.15.1-.31.12-.47.1-.69.3-1.35.47-2.02.1-.43.23-.86.33-1.29.19-.87.39-1.73.63-2.58.08-.28.14-.57.2-.85.05-.22.08-.45.12-.67.06-.3.13-.59.21-.88.19-.7.38-1.4.56-2.1.06-.22.16-.39.31-.55.54-.56,1.13-1.07,1.78-1.51.73-.5,1.5-.95,2.27-1.38.55-.31,1.11-.59,1.65-.89.35-.19.7-.39,1.04-.6,1.17-.74,2.31-1.53,3.43-2.34.55-.4,1.08-.84,1.57-1.3.1-.1.2-.2.29-.31.05-.07.1-.14.14-.22.11-.25.06-.47-.16-.63-.08-.06-.17-.1-.26-.13-.24-.07-.48-.12-.73-.11-.48.02-.95.1-1.41.21-1.01.24-2,.54-2.99.86-.92.29-1.75.75-2.45,1.41-.44.41-.87.84-1.29,1.28-.35.37-.64.79-.89,1.24-.27.49-.55.98-.83,1.47-.18.31-.35.62-.53.93-.03.05-.05.11-.12.11,0-.06,0-.12.02-.18.08-.29.16-.58.23-.88.1-.38.15-.76.22-1.14.11-.56.24-1.12.37-1.68.1-.46.23-.92.3-1.39.06-.42.14-.83.25-1.24.12-.41.23-.81.34-1.22.03-.1.05-.21.06-.32.05-.35.1-.71.15-1.06.02-.15.02-.3.05-.45.12-.65.25-1.29.36-1.94.06-.37.11-.75.12-1.13,0-.4.07-.8.15-1.19.03-.14.19-1.37.21-1.5-.07,0-.14,0-.21-.01-.02.1-.2,1.29-.22,1.39-.09.43-.17.87-.18,1.31-.01.37-.06.73-.12,1.09-.11.65-.25,1.29-.37,1.94-.03.15-.03.3-.05.45-.05.36-.1.73-.15,1.09-.01.09-.03.17-.06.25-.13.44-.25.87-.38,1.31-.1.35-.17.71-.22,1.08-.05.34-.13.68-.21,1.01-.12.54-.26,1.07-.38,1.61-.05.23-.08.47-.13.7-.07.38-.14.77-.23,1.14-.14.53-.29,1.06-.45,1.59-.09.29-.22.56-.34.84-.05.11-.1.21-.1.34,0,.03,0,.07-.01.1-.18.42-.23.87-.36,1.3-.07.23-.13.46-.19.69-.15.63-.34,1.25-.45,1.89-.1.57-.26,1.11-.4,1.67-.16.67-.31,1.35-.48,2.02-.1.41-.2.82-.31,1.23-.18.7-.38,1.4-.49,2.12-.02.13-.06.25-.1.38-.14.42-.25.85-.32,1.29-.04.26-.11.51-.15.76-.09.6-.17,1.2-.26,1.8-.01.09-.02.17-.04.26-.07.45-.11.9-.13,1.35-.01.29-.04.58-.06.87-.04.54-.07,1.08-.13,1.62-.05.43,0,.87-.03,1.29-.04.74.03,1.47.06,2.2,0,.05,0,.11,0,.16-.06.43,0,.86.01,1.3.01.34.03.67.05,1,.02.28.05.56.09.84.06.36.08.73.1,1.1.03.62.17,1.22.3,1.82.08.36.13.72.2,1.08.03.14.05.28.08.41.15.65.3,1.31.46,1.96.07.28.18.55.26.83.13.42.25.85.36,1.28.17.67.37,1.33.49,2.02.03.19.1.37.15.56.04.17.12.32.28.42.03.26.05.52.08.78.02.14.07.22.12.19.09-.04.08-.12.08-.19-.02-.77.02-1.54-.04-2.3-.03-.45,0-.91,0-1.36,0-.35.04-.69.05-1.04,0-.03,0-.07,0-.1.15-.96.15-1.94.41-2.89.07-.24.09-.49.14-.73.21-.96.54-1.89.87-2.82.02-.06.02-.13.11-.14,0-.02,0-.04,0-.06,0,.02,0,.03,0,.05-.05.18-.06.36.01.54.03.08.02.15,0,.22-.11.29-.19.59-.24.89-.04.24-.13.48-.19.72-.32,1.16-.53,2.34-.62,3.54-.04.56-.05,1.12,0,1.69.04.5.07.99.11,1.49.07,1.11.3,2.19.6,3.25.13.45.28.89.42,1.33,0,.03.03.06.03.09.01.3.2.52.37.74.1.13.19.26.22.42.06.36.26.66.46.96.16.23.33.45.5.68.11.14.22.27.34.39.65.64,1.21,1.36,1.83,2.02.17.18.3.39.45.58-.01.11-.03.19-.03.28,0,.06.02.15.06.18.15.1.17.27.19.41.09.04.11,0,.13-.06.02-.05.03-.11.03-.16,0-.22-.01-.43-.04-.65-.03-.23-.05-.45-.05-.68,0-.14-.04-.28.1-.38.01-.13.05-.26.04-.39-.06-.68.11-1.31.33-1.94.01-.04.04-.08.05-.12.29-1.03.66-2.04.8-3.1.07-.55.16-1.09.25-1.63.16-.93.41-1.83.71-2.73.26-.79.49-1.59.75-2.38.1-.3.21-.59.33-.88.04-.1.1-.19.16-.28.04-.06.1-.11.16-.19.04.05.09.08.11.12.19.39.39.77.57,1.16.19.39.29.81.33,1.25,0,.04,0,.09.01.13.04.83.08,1.66.11,2.5.03.78-.07,1.55-.27,2.31-.01.05-.02.11-.04.16-.31.81-.61,1.62-1.12,2.34-.11.16-.22.32-.31.5-.34.65-.69,1.3-.98,1.97-.2.48-.43.94-.61,1.43-.22.59-.38,1.19-.41,1.83,0,.09-.02.17-.08.24-.08.08-.09.19-.11.3-.04.21-.07.42-.11.64-.08-.03-.06-.09-.06-.13-.03-.32-.06-.65-.09-.97-.04-.64.03-1.28.18-1.9.13-.49.3-.97.47-1.45.3-.86.7-1.67,1.05-2.51.18-.44.32-.9.43-1.36.28-1.14.47-2.29.59-3.45.08-.74.11-1.49.13-2.23,0-.1-.01-.21-.02-.31-.1.02-.09.09-.1.15-.06.42-.1.84-.17,1.25-.23,1.46-.45,2.93-.79,4.37-.15.65-.35,1.29-.62,1.91-.16.36-.32.71-.46,1.07-.33.82-.65,1.65-.85,2.52-.17.75-.24,1.51-.17,2.29.06.63.12,1.25.26,1.86.14.62.3,1.24.55,1.83.16.38.27.77.4,1.16.07.2.14.41.2.61.14.46.27.91.41,1.37.19.61.26,1.25.4,1.87.06.27.13.55.19.82.1.45.2.91.31,1.36.24,1.05.33,2.11.5,3.17.02.13.06.27.09.43-.09-.04-.15-.06-.21-.09-.22-.11-.45-.22-.69-.27-.05-.01-.1-.04-.15-.05-.08-.03-.12-.09-.13-.17,0-.09-.02-.17-.02-.26.04-.71.03-1.43.01-2.14,0-.31,0-.63-.02-.94-.02-.24-.05-.48-.11-.7-.37-1.35-.75-2.71-1.15-4.06-.26-.87-.6-1.71-.98-2.54-.37-.82-.73-1.64-1.15-2.43-.11-.21-.24-.41-.29-.65-.02-.1-.11-.18-.17-.27-.11-.16-.22-.32-.32-.49-.29-.53-.56-1.07-.85-1.61-.36-.68-.79-1.32-1.22-1.95-.33-.49-.66-.99-1.01-1.47-.37-.52-.76-1.03-1.15-1.53-.67-.86-1.28-1.77-1.85-2.7-.62-1.01-1.2-2.03-1.78-3.06-.06-.1-.12-.21-.16-.32-.02-.05,0-.12,0-.21-.11-.07-.22-.18-.29-.33-.35-.66-.71-1.31-1.06-1.97-.36-.68-.67-1.38-.95-2.1-.32-.81-.62-1.62-.92-2.43-.26-.69-.51-1.38-.75-2.07-.18-.52-.32-1.06-.5-1.58-.33-.95-.59-1.92-.84-2.9-.13-.5-.23-1.01-.35-1.52-.07-.29-.14-.59-.21-.88-.1-.38-.18-.76-.22-1.15,0-.05-.03-.11-.02-.16.06-.18-.02-.33-.07-.5-.15-.51-.3-1.01-.44-1.53-.19-.71-.37-1.42-.51-2.15-.08-.39-.2-.77-.3-1.16-.12-.45-.22-.9-.27-1.37-.13-1.15-.27-2.3-.41-3.45-.12-.94-.15-1.9-.28-2.84-.08-.6-.09-1.21-.16-1.81-.01-.12-.03-.24-.05-.35-.05-.26-.09-.53-.12-.8-.04-.34-.11-1.86-.16-2.19-.09,0-.19,0-.28,0,0,0,0,.01,0,.02.09.64.1,2.48.25,3.12.01.05.01.11.02.16.05.72.08,1.45.2,2.16,0,.04,0,.09.01.13.1,1.03.15,2.07.28,3.1.12.94.22,1.89.33,2.84.03.23.06.46.09.73-.13-.16-.16-.32-.22-.47-.27-.71-.53-1.42-.8-2.12-.42-1.11-.93-2.16-1.56-3.17-.33-.52-.68-1.03-1.04-1.53-.22-.31-.48-.58-.78-.83-.07-.06-.15-.12-.24-.17-.13-.07-.27.02-.28.16,0,.09.01.17.02.26.05.3.11.6.16.89.18,1.01.34,2.03.54,3.03.15.75.33,1.5.53,2.24.3,1.1.8,2.12,1.34,3.12.23.43.51.83.82,1.2.74.87,1.47,1.73,2.21,2.59.3.35.54.73.71,1.15.19.44.27.91.41,1.36.04.14.07.29.1.44.09.39.16.78.26,1.17.28,1.13.58,2.26.96,3.37.16.47.28.96.44,1.42.37,1.06.76,2.12,1.14,3.17.55,1.49,1.16,2.96,1.95,4.35.03.05.09.1.05.2-.09-.06-.18-.11-.26-.17-.59-.42-1.17-.86-1.76-1.27-.35-.25-.65-.53-.93-.85-.03-.04-.08-.09-.08-.14,0-.12-.07-.2-.12-.29-.06-.1-.12-.2-.16-.32-.1-.27-.19-.55-.27-.83-.18-.65-.36-1.29-.53-1.94-.2-.73-.4-1.46-.67-2.17-.42-1.07-.92-2.1-1.49-3.09-.36-.62-.71-1.24-1.17-1.79-.5-.61-1.01-1.21-1.53-1.81-.15-.17-.31-.33-.48-.49-.3-.28-.64-.52-1-.72-.1-.06-.22-.11-.33-.13-.17-.04-.31.08-.3.25,0,.12.03.24.06.35.04.13.1.26.16.39.38.76.76,1.53,1.15,2.29.39.75.77,1.5,1.05,2.3.43,1.2.99,2.33,1.64,3.41.3.49.6.98.91,1.46.17.26.37.51.57.75.25.31.52.61.78.91.03.03.09.07.03.14-.05-.04-.11-.07-.16-.11-.41-.32-.82-.64-1.23-.96-.25-.19-.49-.39-.76-.56-.31-.2-.54-.46-.68-.8-.08-.2-.19-.39-.27-.59-.11-.25-.22-.49-.31-.75-.12-.33-.21-.66-.32-.99-.12-.39-.23-.79-.36-1.18-.1-.3-.22-.59-.32-.88-.27-.8-.59-1.58-.96-2.34-.24-.5-.52-.98-.86-1.41-.36-.46-.73-.91-1.11-1.36-.16-.19-.35-.35-.53-.53-.05-.05-.12-.1-.18-.13-.13-.08-.26-.02-.3.13-.02.08-.04.17-.04.26,0,.46.03.91.11,1.36.11.6.21,1.19.33,1.79.07.36.14.72.25,1.07.29.88.71,1.69,1.18,2.48.05.09.1.19.15.28.04.04.08.08.13.13-.11.02-.14-.04-.15-.11-.04-.02-.08-.04-.11-.07-.21-.26-.43-.51-.57-.83-.06-.13-.12-.25-.19-.38-.48-.88-.97-1.76-1.44-2.65-.47-.87-1.02-1.68-1.68-2.42-.28-.31-.56-.63-.85-.94-.78-.82-1.59-1.62-2.54-2.26-.61-.42-1.27-.69-2-.79-.08-.01-.17-.02-.26,0-.18.03-.31.18-.29.37.01.1.05.21.1.31.27.5.55.98.89,1.43.5.66,1.1,1.22,1.7,1.79.45.42.89.85,1.33,1.29.55.55,1.01,1.19,1.48,1.81.21.28.41.56.64.82.8.87,1.66,1.68,2.67,2.3.16.1.3.21.42.35.98,1.11,2.06,2.13,3.21,3.07.13.11.26.22.39.34.04.03.07.07.14.15-.09-.02-.13-.02-.16-.03-.7-.3-1.39-.59-2.05-.97-.37-.22-.75-.43-1.13-.64-.67-.37-1.36-.72-2.02-1.11-1-.59-2.02-1.14-3.06-1.65-.43-.21-.87-.38-1.31-.56-.13-.05-.27-.09-.4-.11-.17-.03-.3.1-.28.27.01.09.05.19.09.27.09.15.19.29.3.42.57.68,1.13,1.37,1.72,2.03.69.78,1.47,1.46,2.35,2.03.9.58,1.85,1.08,2.88,1.41.4.13.8.27,1.2.41.9.33,1.83.52,2.77.64.69.09,1.37.19,2.05.29.56.09,1.04.34,1.47.7.08.07.12.14.13.25.11-.05.18.01.26.07,1.12.9,2.22,1.83,3.26,2.83.42.4.92.73,1.27,1.2.12.05.17.16.23.26.43.74.86,1.48,1.3,2.21.38.62.75,1.24,1.19,1.82.31.41.62.83.94,1.24.93,1.2,1.75,2.47,2.58,3.74.26.41.48.84.72,1.27.03.06.05.13.09.25-.09-.06-.14-.09-.18-.12-.67-.51-1.34-1.03-2.01-1.54-.46-.35-.94-.7-1.4-1.05-.52-.4-1.03-.79-1.53-1.2-.24-.2-.47-.41-.69-.63-.22-.22-.43-.46-.64-.69-.49-.53-.99-1.06-1.49-1.59-.47-.49-.95-.98-1.43-1.46-.14-.14-.28-.27-.44-.38-.29-.21-.63-.09-.75.25-.02.06-.04.13-.04.19-.01.15-.03.3-.02.45.04.89.18,1.76.6,2.57.06.13.12.25.18.38.53,1.14,1.29,2.12,2.22,2.97.57.52,1.2.92,1.93,1.17.47.16.94.32,1.42.46.5.15.99.32,1.46.53.73.32,1.46.65,2.2.96.66.28,1.17.76,1.68,1.26.1,0,.22,0,.32,0,.04.08.08.13.11.19.3.65.6,1.29.9,1.94.43.92.79,1.87,1.08,2.85.32,1.08.6,2.17.92,3.25.16.55.25,1.1.25,1.66,0,.79,0,1.58,0,2.37,0,.37.05.74.18,1.08.31.78,1.03,1.24,1.88,1.26.18,0,.37-.12.43-.28.06-.15.02-.28-.14-.43-.08-.07-.17-.15-.21-.24-.13-.33-.27-.66-.31-1.02-.12-.91-.26-1.82-.4-2.73-.07-.44-.15-.87-.26-1.3-.21-.83-.39-1.66-.53-2.51-.01-.06-.02-.13-.04-.19-.2-.67-.39-1.35-.59-2.02-.15-.5-.31-.99-.5-1.47-.21-.51-.36-1.04-.51-1.57-.04-.13-.06-.25.03-.37.04-.05.03-.14.04-.22.02-.17.02-.34.04-.52.04.01.07.02.11.03.02-.07.05-.14.06-.22.06-.41.11-.81.17-1.22.06-.47.15-.94.31-1.39.3-.88.71-1.72,1.1-2.56,0,0,.01-.02.02-.03.35-.65.68-1.3,1.09-1.92.36-.54.59-1.16.82-1.76.33-.87.46-1.78.43-2.71-.03-.84-.08-1.69-.11-2.53,0-.09-.01-.17-.02-.26-.04-.49-.16-.96-.38-1.4-.19-.39-.39-.77-.58-1.16-.03-.06-.06-.11-.1-.16-.12-.15-.3-.18-.46-.06-.08.06-.15.13-.2.21-.1.16-.21.33-.28.51-.17.43-.32.87-.46,1.32-.21.65-.42,1.3-.61,1.95-.17.57-.34,1.14-.49,1.72-.23.87-.32,1.77-.45,2.65-.1.66-.21,1.32-.44,1.96-.08.22-.13.46-.2.68-.1.31-.2.62-.3.92,0,.02-.03.02-.06.04-.02-.07-.05-.14-.07-.21-.12-.38-.24-.76-.35-1.15-.1-.35-.18-.71-.24-1.07-.14-.78-.2-1.57-.25-2.36-.07-1.23-.18-2.46-.36-3.68-.09-.6-.27-1.18-.53-1.73-.06-.13-.14-.25-.22-.36-.18-.22-.38-.25-.64-.12-.19.1-.34.23-.45.41-.14.22-.24.46-.31.71-.21.77-.33,1.56-.35,2.37,0,.32.01.65,0,.97-.03.68-.08,1.36-.12,2.04-.04.57-.12,1.14-.05,1.72,0,.01-.02.03-.05.07-.04-.17-.08-.31-.12-.45-.26-.82-.48-1.64-.66-2.48-.11-.52-.21-1.04-.26-1.57-.08-.79-.13-1.57-.17-2.36-.02-.31-.02-.63,0-.94.04-.84.14-1.68.31-2.51.09-.43.17-.87.29-1.25.21-.11.39-.2.58-.29.11-.05.21-.11.33-.13.46-.11.93-.21,1.4-.3,1.1-.2,2.16-.54,3.2-.94.54-.21,1.06-.48,1.59-.73.52-.24,1.02-.53,1.48-.86,1.19-.86,2.24-1.88,3.15-3.02.16-.2.3-.42.44-.64.09-.15.17-.3.24-.46.04-.1.07-.21.08-.31.02-.22-.09-.33-.3-.32-.19.01-.39.04-.58.09-.33.09-.66.21-.99.3-1.25.36-2.45.84-3.61,1.44-.59.3-1.19.56-1.81.8-.1.04-.2.08-.31.07.32-.15.65-.31.97-.46.59-.27,1.16-.58,1.68-.97,1.19-.88,2.34-1.82,3.46-2.79.37-.32.71-.66,1.02-1.04.4-.49.71-1.03.95-1.61.09-.21.15-.43.14-.66-.01-.33-.18-.4-.42-.34-.15.04-.29.08-.43.15-.34.17-.67.35-1,.54-.62.35-1.25.69-1.91.97-.82.35-1.61.74-2.39,1.16-.7.37-1.37.79-1.96,1.32-.14.12-.28.24-.42.36-.61.52-1.21,1.05-1.71,1.68-.16.19-.31.39-.46.58-.04.05-.08.12-.2.17.06-.14.09-.22.14-.31.28-.54.59-1.06.92-1.56.51-.78,1.05-1.54,1.68-2.23.43-.48.89-.94,1.37-1.38.59-.55,1.17-1.13,1.8-1.64.53-.43,1.05-.87,1.58-1.3.08-.07.17-.14.26-.2.48-.34.93-.71,1.34-1.12.19-.19.4-.34.63-.45.33-.16.67-.3,1.01-.45.93-.4,1.81-.87,2.6-1.52.29-.24.58-.49.86-.74.44-.4.87-.82,1.2-1.31.58-.87,1.04-1.79,1.32-2.81.32-1.18.48-2.39.69-3.6.02-.12,0-.26-.01-.39ZM154.83,65.81c.37-.64.74-1.27,1.1-1.91.32-.57.7-1.09,1.16-1.56.43-.44.86-.88,1.34-1.27.55-.45,1.17-.78,1.84-1,.97-.33,1.96-.62,2.96-.86.39-.09.78-.16,1.18-.22.28-.05.56-.03.84.04.05.01.1.03.15.05.19.08.22.18.09.35-.09.12-.2.23-.31.33-.44.4-.9.78-1.38,1.13-1.19.86-2.4,1.7-3.64,2.48-.3.19-.61.37-.92.54-.5.28-1.01.53-1.51.82-.67.39-1.34.79-2.01,1.19-.09.05-.18.11-.29.18-.03-.09.04-.12.07-.16.69-.69,1.4-1.35,2.17-1.95,1.16-.91,2.34-1.78,3.57-2.59.49-.32.99-.62,1.48-.93.08-.05.16-.1.22-.2-.04,0-.09,0-.13.02-.67.26-1.31.57-1.92.94-1.39.84-2.7,1.79-3.97,2.81-.71.57-1.35,1.21-1.98,1.87-.09.09-.18.18-.27.28l-.04-.04c.07-.11.13-.22.2-.33ZM141.91,84.33c-.08-.18-.16-.35-.24-.53-.24-.53-.54-1.03-.85-1.53-.51-.81-.91-1.67-1.3-2.54-.59-1.3-1.06-2.65-1.48-4.01-.06-.2-.1-.4-.15-.6-.04-.13-.05-.27-.2-.4.01.18.02.31.03.44.01.13.02.26.04.39.09.71.34,1.38.55,2.07.44,1.43,1.05,2.79,1.75,4.11.17.32.36.64.56.95.21.34.42.68.59,1.04.04.08.09.15.13.22-.03,0-.07.03-.09.02-.04-.03-.08-.07-.11-.11-.56-.69-1.12-1.37-1.68-2.06-.29-.35-.53-.74-.73-1.15-.4-.79-.8-1.58-1.07-2.43-.16-.5-.3-1.01-.42-1.53-.18-.77-.34-1.54-.49-2.32-.14-.72-.25-1.45-.38-2.17-.02-.14-.05-.27-.08-.45.09.07.15.11.2.16.28.28.51.59.73.91.92,1.33,1.67,2.75,2.24,4.27.64,1.69,1.27,3.38,1.89,5.07.27.73.51,1.47.7,2.23,0,.04,0,.08.02.19-.07-.11-.11-.17-.14-.23ZM134.89,90.71c-.12-.12-.25-.24-.36-.37-.48-.56-.96-1.11-1.43-1.68-.25-.3-.48-.61-.71-.93-.57-.8-1.2-1.56-1.86-2.29-.47-.51-.96-1-1.5-1.43-.19-.15-.39-.27-.59-.39-.04-.03-.1-.05-.15-.05-.05,0-.1.04-.13.08-.02.03-.02.09,0,.12.04.06.09.13.14.17.29.25.56.51.86.73.71.51,1.3,1.14,1.85,1.82.37.45.72.92,1.07,1.39.79,1.08,1.61,2.14,2.44,3.2.09.11.17.23.25.34,0,0,0,.02,0,.05-.04-.02-.07-.04-.1-.07-.13-.11-.27-.22-.39-.34-.33-.31-.66-.63-.98-.95-.36-.36-.67-.76-.98-1.17-.27-.38-.56-.74-.85-1.11-.31-.4-.66-.77-1.03-1.12-.63-.6-1.25-1.19-1.88-1.79-.67-.64-1.19-1.4-1.64-2.21-.02-.03-.03-.06-.05-.09-.03-.07-.09-.14-.04-.21.05-.08.13-.05.21-.04.63.11,1.21.3,1.74.67.73.51,1.43,1.05,2.03,1.71.51.56,1.03,1.11,1.54,1.67.56.63,1.04,1.33,1.44,2.07.41.75.83,1.49,1.24,2.24-.07.06-.1,0-.13-.03ZM139.23,94.98c-.24-.2-.49-.39-.72-.6-.2-.18-.39-.37-.56-.58-.38-.48-.75-.98-1.11-1.48-.22-.32-.42-.65-.6-1-.21-.4-.4-.82-.59-1.23-.22-.49-.34-1-.43-1.53-.11-.6-.22-1.19-.32-1.79-.07-.41-.11-.81-.12-1.23,0-.02.01-.04.02-.06.06-.04.1.01.14.05.12.11.24.22.34.35.35.42.71.85,1.05,1.28.38.49.68,1.02.95,1.58.34.71.62,1.45.88,2.2.27.78.53,1.55.75,2.35.05.2.13.39.2.58,0,0,0,0,0,0-.03,0-.07,0-.08-.01-.06-.08-.11-.16-.16-.24-.5-.84-.91-1.72-1.33-2.6-.38-.81-.72-1.64-.98-2.51-.1-.34-.18-.69-.28-1.04-.07.05-.08.13-.08.21.02.28.04.56.09.84.1.51.27,1,.47,1.48.6,1.49,1.26,2.94,2.14,4.29.14.21.28.41.42.62.03.04.08.07.05.16-.05-.03-.09-.05-.13-.08ZM140.89,96.51c.38.3.76.6,1.15.91-.17-.03-.5-.19-.79-.4-.24-.18-.48-.36-.71-.58.27.02.28.02.35.07ZM142.23,98.35c-1-.27-2-.53-3-.83-1.82-.53-3.45-1.44-4.97-2.55-.74-.54-1.46-1.11-2.19-1.67-.07-.06-.15-.11-.23-.16-.05.07,0,.1.02.13.19.28.41.53.66.75,1.29,1.11,2.66,2.11,4.17,2.9.58.3,1.18.53,1.79.75.21.08.43.15.64.22,0,.04,0,.07,0,.11-.04-.02-.07-.05-.11-.06-.76-.19-1.48-.47-2.22-.72-.53-.18-1.06-.37-1.57-.61-1.52-.73-2.86-1.71-3.96-2.98-.52-.61-1.04-1.22-1.56-1.82-.1-.12-.21-.25-.28-.39.08-.08.15-.03.21,0,.41.17.83.32,1.22.52,1.01.5,2,1.02,2.96,1.61.62.38,1.25.73,1.89,1.06.44.23.87.48,1.3.73.57.33,1.17.62,1.77.88.65.28,1.29.56,1.9.9.13.07.26.16.38.25.34.26.68.53,1.02.8.06.05.11.1.17.15-.02.02-.04.04-.05.04ZM142.83,96.31c-.44-.92-.79-1.87-1.13-2.83-.64-1.78-1.55-3.42-2.68-4.95-.23-.31-.48-.61-.81-.87,0,.05-.01.08,0,.1.64.77,1.11,1.65,1.61,2.51.73,1.25,1.29,2.57,1.74,3.94.25.77.58,1.51.93,2.25.05.1.12.19.1.31-.27-.24-.51-.52-.7-.82-.74-1.17-1.49-2.33-2.07-3.6-.19-.41-.37-.83-.53-1.25-.34-.92-.76-1.79-1.22-2.65-.39-.73-.76-1.48-1.14-2.22-.06-.12-.11-.26-.16-.39-.01-.04,0-.08-.01-.13.14,0,.24.08.33.14.36.23.7.47.98.79.78.89,1.58,1.75,2.23,2.74.66,1,1.22,2.07,1.71,3.16.42.92.74,1.87,1,2.84.22.82.4,1.66.67,2.48-.04-.04-.08-.08-.11-.12-.29-.46-.52-.95-.76-1.43ZM142.94,98.3c.03-.08.1-.08.15-.05.11.07.21.15.3.24.15.13.29.27.48.45-.31-.14-.74-.43-.94-.64ZM148.37,102.95s-.02,0-.03,0c-.73-.69-1.44-1.4-2.19-2.06-.01-.01-.01-.03-.02-.05.01-.01.03-.03.04-.04.4.29.8.58,1.2.88.19.14.36.3.55.45.1.08.18.18.24.3.08.17.17.34.26.51-.03.02-.03.02-.04.02ZM156.14,115.51c-.5-.47-1.05-.87-1.65-1.19-.55-.29-1.11-.58-1.68-.86-.69-.33-1.36-.71-1.98-1.17-.29-.22-.58-.45-.85-.7-1.24-1.12-2.38-2.34-3.31-3.73-.05-.08-.11-.15-.19-.25-.05.12.02.18.05.25.48.94,1.08,1.8,1.78,2.58.59.66,1.21,1.3,1.9,1.87.67.56,1.39,1.02,2.18,1.41.62.3,1.24.61,1.86.92.63.32,1.2.73,1.73,1.2.04.03.07.07.09.12-.51-.29-1.04-.53-1.57-.76-.81-.37-1.61-.74-2.46-1.02-.5-.16-1.01-.33-1.51-.49-.76-.23-1.42-.63-2-1.17-.91-.83-1.66-1.79-2.18-2.92-.15-.32-.31-.64-.43-.98-.23-.67-.33-1.37-.3-2.08,0-.07.01-.15.03-.22.04-.12.16-.16.26-.09.13.1.25.2.37.32.51.53,1.03,1.05,1.53,1.59.47.5.94,1.02,1.41,1.53.2.22.41.45.61.67.24.26.51.5.79.72.53.41,1.05.83,1.58,1.25.24.19.48.38.72.55,1.15.82,2.26,1.68,3.33,2.59.07.06.14.11.19.17.05.05.08.12.11.18-.17-.06-.29-.19-.41-.3ZM162.56,131.28c-.53.13-1.17-.29-1.43-.94.37.06.63.25.91.41.21.12.33.35.52.53ZM155.02,108.02c.04-.53.07-1.06.12-1.59.05-.63.04-1.25.03-1.88,0-.52.06-1.04.13-1.55.04-.33.1-.66.21-.98.06-.18.14-.36.22-.54.06-.13.15-.24.27-.32.19-.13.28-.12.4.06.04.06.08.13.11.2.21.47.38.94.45,1.45.2,1.36.34,2.73.4,4.1.04.89.14,1.77.31,2.64.06.34.18.67.27,1,.12.42.27.82.37,1.24.12.48.16.98.03,1.47-.09.02-.1-.05-.12-.09-.31-.58-.62-1.17-.91-1.76-.21-.43-.34-.89-.46-1.35-.44-1.72-.65-3.46-.7-5.23-.01-.41-.04-.82-.06-1.23,0-.09,0-.17,0-.26,0-.08,0-.16,0-.29-.05.06-.08.08-.08.1-.04.28-.1.55-.12.83-.09,1.28-.05,2.55.12,3.82.12.91.31,1.81.55,2.7.14.49.32.96.57,1.41.19.34.37.69.55,1.03.03.05.04.11.06.17-.03-.01-.07-.02-.1-.05-.08-.09-.16-.18-.23-.27-.36-.44-.73-.86-1.11-1.27-.32-.35-.58-.76-.86-1.13-.1-.13-.12-.29-.21-.43-.08-.13-.08-.31-.11-.47-.03-.16-.06-.32-.08-.48-.06-.36-.03-.71,0-1.07ZM156.58,88.17c.15-.39.31-.78.47-1.17.2-.48.4-.96.59-1.44.16-.4.32-.8.45-1.22.23-.72.44-1.45.65-2.17.23-.8.38-1.62.53-2.44.18-.93.4-1.86.69-2.77.03-.1.08-.2.12-.3.01-.03.03-.06.05-.1.16.08.21.19.27.29.21.36.36.74.43,1.15.04.22.08.45.12.67.12.6.11,1.2.01,1.81-.07.4-.12.81-.22,1.21-.3,1.2-.82,2.3-1.51,3.32-.32.48-.63.96-.92,1.45-.2.34-.47.62-.69.94-.09-.06-.03-.1,0-.14.17-.27.36-.52.5-.79.91-1.69,1.61-3.44,1.92-5.35.08-.49.08-.99.09-1.49,0-.01-.03-.02-.05-.05-.09.13-.1.28-.12.42-.1.7-.28,1.38-.45,2.06-.22.87-.53,1.71-.89,2.54-.23.51-.44,1.04-.7,1.54-.39.76-.87,1.47-1.38,2.17,0-.05.01-.09.03-.14ZM154.26,92.35c-.04.36-.09.72-.17,1.09,0-.06-.03-.13-.03-.19-.02-.45-.02-.91-.05-1.36-.03-.41-.09-.82-.13-1.22-.03-.24-.06-.47-.08-.71-.07-.6-.12-1.21-.2-1.81-.06-.47-.14-.94-.24-1.41-.11-.5-.16-1.01-.2-1.51-.09-.97-.12-1.94-.11-2.92,0-.45.07-.9.18-1.35.24-.94.52-1.87.82-2.8.24-.73.47-1.46.73-2.18.17-.47.37-.92.55-1.38.02-.06.06-.11.09-.15.08,0,.08.06.08.09.04.22.09.45.11.67.08,1.1.17,2.2.22,3.3.03.64,0,1.28.01,1.91,0,.37,0,.74.01,1.1,0,.8-.07,1.6-.15,2.39-.07.68-.13,1.36-.21,2.03-.08.74-.18,1.48-.25,2.22-.07.71-.11,1.42-.16,2.13-.04.54-.11,1.08-.24,1.6-.04.17-.11.33-.17.49,0,.03-.04.04-.08.08,0-.06-.02-.1,0-.14.1-.63.07-1.27.08-1.91.02-1.06-.04-2.12-.1-3.18-.07-1.24-.08-2.49,0-3.73.11-1.78.37-3.55.78-5.29.08-.34.14-.68.3-.99,0,0,0-.02-.02-.04-.11.08-.17.19-.22.3-.08.19-.15.38-.22.58-.35,1.07-.57,2.17-.73,3.29-.13.91-.25,1.82-.29,2.74-.02.58-.04,1.17-.02,1.75.04,1.23.12,2.46.14,3.7.02.93.08,1.86-.03,2.79ZM159.06,92.56c.58-.21,1.14-.47,1.7-.72.4-.18.8-.38,1.19-.58.81-.41,1.67-.7,2.54-.97.43-.13.87-.27,1.3-.4.11-.03.23-.04.37-.07,0,.08.01.15,0,.2-.07.16-.14.32-.24.46-.23.33-.47.65-.72.96-.64.76-1.36,1.45-2.13,2.09-.64.52-1.32.98-2.07,1.33-.58.27-1.14.57-1.74.79-.78.29-1.57.54-2.38.74-.65.16-1.31.27-1.97.42-.18.04-.35.1-.53.16.02-.04.03-.08.05-.1.52-.64,1.13-1.15,1.89-1.49.61-.28,1.23-.52,1.87-.73.8-.26,1.56-.63,2.32-1.01.43-.22.86-.45,1.29-.68.52-.27,1.01-.58,1.5-.9.15-.1.3-.2.39-.37-.02-.01-.04-.02-.04-.02-1.36.71-2.72,1.43-4.11,2.07-.61.28-1.23.54-1.87.73-.63.19-1.22.49-1.81.79-.5.26-.94.62-1.31,1.05-.06.07-.13.14-.2.21-.01-.25.04-.45.19-.62.35-.4.69-.8,1.04-1.2.38-.43.84-.78,1.33-1.08.68-.43,1.4-.77,2.15-1.04ZM156.35,91.74c.24-.31.48-.61.73-.91.53-.65,1.15-1.21,1.78-1.75,1.3-1.11,1.12-.99,2.84-1.91.53-.29,1.08-.54,1.64-.79.71-.32,1.41-.66,2.08-1.06.3-.18.6-.34.91-.5.14-.07.3-.12.48-.19,0,.1.03.18.02.24-.04.17-.09.34-.16.49-.35.78-.83,1.47-1.46,2.05-.43.39-.87.78-1.33,1.14-.82.67-1.66,1.32-2.5,1.97-.51.39-1.07.7-1.65.96-.88.39-1.75.81-2.58,1.29-.33.2-.65.42-.98.64-.05.03-.1.07-.16.11-.07-.07,0-.11.02-.14.48-.61.99-1.2,1.59-1.7.6-.5,1.23-.96,1.89-1.36,1-.61,1.93-1.31,2.87-2.01.82-.62,1.66-1.22,2.48-1.83.08-.06.15-.12.21-.21-.05.01-.1.02-.14.04-.53.22-1.03.5-1.51.82-.63.44-1.25.89-1.87,1.35-.68.5-1.37.98-2.09,1.43-.54.34-1.06.71-1.58,1.08-.8.58-1.48,1.3-2.08,2.09-.13.17-.26.34-.4.51-.02.02-.06.03-.09.04.02-.07.03-.14.06-.2.25-.6.57-1.17.97-1.68ZM162.9,83.01c-.18.16-.35.32-.54.46-.59.44-1.14.93-1.66,1.44-.54.52-1.1,1.04-1.62,1.58-.79.81-1.45,1.71-2.07,2.65-.79,1.2-1.43,2.46-1.94,3.8-.02.06-.06.11-.09.16.03-.19.07-.38.09-.57.08-.63.32-1.21.59-1.77.18-.37.37-.73.57-1.09.31-.56.69-1.08,1.14-1.52.33-.33.61-.69.89-1.06.24-.32.52-.61.8-.89.43-.44.87-.87,1.33-1.29.33-.3.67-.58,1.02-.85.47-.37.94-.72,1.41-1.08.04-.03.09-.06.13-.08.03.05,0,.09-.05.12ZM172.85,73.08c-.07.34-.16.67-.24,1.01-.25.99-.71,1.88-1.27,2.72-.19.29-.43.54-.67.79-.55.57-1.15,1.08-1.78,1.55-.44.33-.94.58-1.43.83-.23.12-.47.22-.71.32-.07.03-.14.05-.24.08.08-.17.19-.25.28-.35.42-.45.86-.89,1.27-1.34.63-.7,1.24-1.41,1.79-2.18.17-.24.33-.48.43-.76.03-.08.05-.17.07-.25.03-.1,0-.19-.07-.27.04-.11.09-.22.14-.35-.16.16-.31.41-.32.61,0,.08-.03.14-.07.21-.33.46-.62.93-1.01,1.35-.24.25-.47.51-.69.77-.5.6-1.1,1.1-1.71,1.59-.21.17-.42.33-.64.49-.05-.08,0-.12.04-.15.68-.82,1.22-1.74,1.71-2.68.39-.74.88-1.41,1.46-2.01.32-.33.63-.65.95-.98.68-.69,1.3-1.42,1.9-2.17.28-.35.56-.68.85-1.02.11-.13.23-.26.39-.38,0,.1.02.16.01.22-.14.79-.28,1.57-.44,2.36Z"/>
      <g>
        <path class="cls-1" d="M165.7,58.84c-.08-.06-.17-.1-.26-.13-.24-.07-.48-.12-.73-.11-.48.02-.95.1-1.41.21-1.01.24-2,.54-2.99.86-.92.29-1.75.75-2.45,1.41-.44.41-.87.84-1.29,1.28-.35.37-.64.79-.89,1.24-.27.49-.55.98-.83,1.47-.18.31-.35.62-.53.93-.02.03-.03.06-.05.08.16.33.32.67.49.99.23-.19.47-.38.72-.55.73-.5,1.5-.95,2.27-1.38.55-.31,1.11-.59,1.65-.89.35-.19.7-.39,1.04-.6,1.17-.74,2.31-1.53,3.43-2.34.55-.4,1.08-.84,1.57-1.3.1-.1.2-.2.29-.31.05-.07.1-.14.14-.22.11-.25.06-.47-.16-.63ZM165.49,59.42c-.09.12-.2.23-.31.33-.44.4-.9.78-1.38,1.13-1.19.86-2.4,1.7-3.64,2.48-.3.19-.61.37-.92.54-.5.28-1.01.53-1.51.82-.67.39-1.34.79-2.01,1.19-.09.05-.18.11-.29.18-.03-.09.04-.12.07-.16.69-.69,1.4-1.35,2.17-1.95,1.16-.91,2.34-1.78,3.57-2.59.49-.32.99-.62,1.48-.93.08-.05.16-.1.22-.2-.04,0-.09,0-.13.02-.67.26-1.31.57-1.92.94-1.39.84-2.7,1.79-3.97,2.81-.71.57-1.35,1.21-1.98,1.87-.09.09-.18.18-.27.28l-.04-.04c.07-.11.13-.22.2-.33.37-.64.74-1.27,1.1-1.91.32-.57.7-1.09,1.16-1.56.43-.44.86-.88,1.34-1.27.55-.45,1.17-.78,1.84-1,.97-.33,1.96-.62,2.96-.86.39-.09.78-.16,1.18-.22.28-.05.56-.03.84.04.05.01.1.03.15.05.19.08.22.18.09.35Z"/>
        <path class="cls-1" d="M141.9,84.31c-.08-.17-.16-.34-.24-.51-.24-.53-.54-1.03-.85-1.53-.51-.81-.91-1.67-1.3-2.54-.59-1.3-1.06-2.65-1.48-4.01-.06-.2-.1-.4-.15-.6-.04-.13-.05-.27-.2-.4.01.18.02.31.03.44.01.13.02.26.04.39.09.71.34,1.38.55,2.07.44,1.43,1.05,2.79,1.75,4.11.17.32.36.64.56.95.21.34.42.68.59,1.04.04.08.09.15.13.22-.03,0-.07.03-.09.02-.04-.03-.08-.07-.11-.11-.56-.69-1.12-1.37-1.68-2.06-.29-.35-.53-.74-.73-1.15-.4-.79-.8-1.58-1.07-2.43-.16-.5-.3-1.01-.42-1.53-.18-.77-.34-1.54-.49-2.32-.14-.72-.25-1.45-.38-2.17-.02-.14-.05-.27-.08-.45.09.07.15.11.2.16.28.28.51.59.73.91.92,1.33,1.67,2.75,2.24,4.27.64,1.69,1.27,3.38,1.89,5.07.2.54.37,1.08.53,1.63-.03-.43-.08-.85-.17-1.27-.28-1.3-.85-2.51-.97-3.85,0-.08,0-.16.04-.22-.03-.09-.08-.18-.12-.27.02.21.05.42.07.64.03.23.06.46.09.73-.13-.16-.16-.32-.22-.47-.27-.71-.53-1.42-.8-2.12-.42-1.11-.93-2.16-1.56-3.17-.33-.52-.68-1.03-1.04-1.53-.22-.31-.48-.58-.78-.83-.07-.06-.15-.12-.24-.17-.13-.07-.27.02-.28.16,0,.09.01.17.02.26.05.3.11.6.16.89.18,1.01.34,2.03.54,3.03.15.75.33,1.5.53,2.24.3,1.1.8,2.12,1.34,3.12.23.43.51.83.82,1.2.74.87,1.47,1.73,2.21,2.59.16.19.3.39.43.6-.02-.35-.04-.7-.05-1.05Z"/>
        <path class="cls-1" d="M144.03,99.67c.04-.09.1-.17.2-.23.15-.09.31-.17.46-.25-.03-.03-.06-.06-.09-.09-.03-.04-.08-.09-.08-.14,0-.12-.07-.2-.12-.29-.06-.1-.12-.2-.16-.32-.1-.27-.19-.55-.27-.83-.18-.65-.36-1.29-.53-1.94-.2-.73-.4-1.46-.67-2.17-.42-1.07-.92-2.1-1.49-3.09-.36-.62-.71-1.24-1.17-1.79-.5-.61-1.01-1.21-1.53-1.81-.15-.17-.31-.33-.48-.49-.3-.28-.64-.52-1-.72-.1-.06-.22-.11-.33-.13-.17-.04-.31.08-.3.25,0,.12.03.24.06.35.04.13.1.26.16.39.38.76.76,1.53,1.15,2.29.39.75.77,1.5,1.05,2.3.43,1.2.99,2.33,1.64,3.41.3.49.6.98.91,1.46.17.26.37.51.57.75.25.31.52.61.78.91.03.03.09.07.03.14-.05-.04-.11-.07-.16-.11-.41-.32-.82-.64-1.23-.96-.25-.19-.49-.39-.76-.56-.31-.2-.54-.46-.68-.8-.08-.2-.19-.39-.27-.59-.11-.25-.22-.49-.31-.75-.12-.33-.21-.66-.32-.99-.12-.39-.23-.79-.36-1.18-.1-.3-.22-.59-.32-.88-.27-.8-.59-1.58-.96-2.34-.24-.5-.52-.98-.86-1.41-.36-.46-.73-.91-1.11-1.36-.16-.19-.35-.35-.53-.53-.05-.05-.12-.1-.18-.13-.13-.08-.26-.02-.3.13-.02.08-.04.17-.04.26,0,.46.03.91.11,1.36.11.6.21,1.19.33,1.79.07.36.14.72.25,1.07.29.88.71,1.69,1.18,2.48.05.09.1.19.15.28.04.04.08.08.13.13-.11.02-.14-.04-.15-.11-.04-.02-.08-.04-.11-.07-.21-.26-.43-.51-.57-.83-.06-.13-.12-.25-.19-.38-.48-.88-.97-1.76-1.44-2.65-.47-.87-1.02-1.68-1.68-2.42-.28-.31-.56-.63-.85-.94-.78-.82-1.59-1.62-2.54-2.26-.61-.42-1.27-.69-2-.79-.08-.01-.17-.02-.26,0-.18.03-.31.18-.29.37.01.1.05.21.1.31.27.5.55.98.89,1.43.5.66,1.1,1.22,1.7,1.79.45.42.89.85,1.33,1.29.55.55,1.01,1.19,1.48,1.81.21.28.41.56.64.82.8.87,1.66,1.68,2.67,2.3.16.1.3.21.42.35.98,1.11,2.06,2.13,3.21,3.07.13.11.26.22.39.34.04.03.07.07.14.15-.09-.02-.13-.02-.16-.03-.7-.3-1.39-.59-2.05-.97-.37-.22-.75-.43-1.13-.64-.67-.37-1.36-.72-2.02-1.11-1-.59-2.02-1.14-3.06-1.65-.43-.21-.87-.38-1.31-.56-.13-.05-.27-.09-.4-.11-.17-.03-.3.1-.28.27.01.09.05.19.09.27.09.15.19.29.3.42.57.68,1.13,1.37,1.72,2.03.69.78,1.47,1.46,2.35,2.03.9.58,1.85,1.08,2.88,1.41.4.13.8.27,1.2.41.9.33,1.83.52,2.77.64.69.09,1.37.19,2.05.29.56.09,1.04.34,1.47.7.05.04.06.1.08.16ZM134.89,90.71c-.12-.12-.25-.24-.36-.37-.48-.56-.96-1.11-1.43-1.68-.25-.3-.48-.61-.71-.93-.57-.8-1.2-1.56-1.86-2.29-.47-.51-.96-1-1.5-1.43-.19-.15-.39-.27-.59-.39-.04-.03-.1-.05-.15-.05-.05,0-.1.04-.13.08-.02.03-.02.09,0,.12.04.06.09.13.14.17.29.25.56.51.86.73.71.51,1.3,1.14,1.85,1.82.37.45.72.92,1.07,1.39.79,1.08,1.61,2.14,2.44,3.2.09.11.17.23.25.34,0,0,0,.02,0,.05-.04-.02-.07-.04-.1-.07-.13-.11-.27-.22-.39-.34-.33-.31-.66-.63-.98-.95-.36-.36-.67-.76-.98-1.17-.27-.38-.56-.74-.85-1.11-.31-.4-.66-.77-1.03-1.12-.63-.6-1.25-1.19-1.88-1.79-.67-.64-1.19-1.4-1.64-2.21-.02-.03-.03-.06-.05-.09-.03-.07-.09-.14-.04-.21.05-.08.13-.05.21-.04.63.11,1.21.3,1.74.67.73.51,1.43,1.05,2.03,1.71.51.56,1.03,1.11,1.54,1.67.56.63,1.04,1.33,1.44,2.07.41.75.83,1.49,1.24,2.24-.07.06-.1,0-.13-.03ZM139.23,94.98c-.24-.2-.49-.39-.72-.6-.2-.18-.39-.37-.56-.58-.38-.48-.75-.98-1.11-1.48-.22-.32-.42-.65-.6-1-.21-.4-.4-.82-.59-1.23-.22-.49-.34-1-.43-1.53-.11-.6-.22-1.19-.32-1.79-.07-.41-.11-.81-.12-1.23,0-.02.01-.04.02-.06.06-.04.1.01.14.05.12.11.24.22.34.35.35.42.71.85,1.05,1.28.38.49.68,1.02.95,1.58.34.71.62,1.45.88,2.2.27.78.53,1.55.75,2.35.05.2.13.39.2.58,0,0,0,0,0,0-.03,0-.07,0-.08-.01-.06-.08-.11-.16-.16-.24-.5-.84-.91-1.72-1.33-2.6-.38-.81-.72-1.64-.98-2.51-.1-.34-.18-.69-.28-1.04-.07.05-.08.13-.08.21.02.28.04.56.09.84.1.51.27,1,.47,1.48.6,1.49,1.26,2.94,2.14,4.29.14.21.28.41.42.62.03.04.08.07.05.16-.05-.03-.09-.05-.13-.08ZM140.89,96.51c.38.3.76.6,1.15.91-.17-.03-.5-.19-.79-.4-.24-.18-.48-.36-.71-.58.27.02.28.02.35.07ZM142.23,98.35c-1-.27-2-.53-3-.83-1.82-.53-3.45-1.44-4.97-2.55-.74-.54-1.46-1.11-2.19-1.67-.07-.06-.15-.11-.23-.16-.05.07,0,.1.02.13.19.28.41.53.66.75,1.29,1.11,2.66,2.11,4.17,2.9.58.3,1.18.53,1.79.75.21.08.43.15.64.22,0,.04,0,.07,0,.11-.04-.02-.07-.05-.11-.06-.76-.19-1.48-.47-2.22-.72-.53-.18-1.06-.37-1.57-.61-1.52-.73-2.86-1.71-3.96-2.98-.52-.61-1.04-1.22-1.56-1.82-.1-.12-.21-.25-.28-.39.08-.08.15-.03.21,0,.41.17.83.32,1.22.52,1.01.5,2,1.02,2.96,1.61.62.38,1.25.73,1.89,1.06.44.23.87.48,1.3.73.57.33,1.17.62,1.77.88.65.28,1.29.56,1.9.9.13.07.26.16.38.25.34.26.68.53,1.02.8.06.05.11.1.17.15-.02.02-.04.04-.05.04ZM142.83,96.31c-.44-.92-.79-1.87-1.13-2.83-.64-1.78-1.55-3.42-2.68-4.95-.23-.31-.48-.61-.81-.87,0,.05-.01.08,0,.1.64.77,1.11,1.65,1.61,2.51.73,1.25,1.29,2.57,1.74,3.94.25.77.58,1.51.93,2.25.05.1.12.19.1.31-.27-.24-.51-.52-.7-.82-.74-1.17-1.49-2.33-2.07-3.6-.19-.41-.37-.83-.53-1.25-.34-.92-.76-1.79-1.22-2.65-.39-.73-.76-1.48-1.14-2.22-.06-.12-.11-.26-.16-.39-.01-.04,0-.08-.01-.13.14,0,.24.08.33.14.36.23.7.47.98.79.78.89,1.58,1.75,2.23,2.74.66,1,1.22,2.07,1.71,3.16.42.92.74,1.87,1,2.84.22.82.4,1.66.67,2.48-.04-.04-.08-.08-.11-.12-.29-.46-.52-.95-.76-1.43ZM142.94,98.3c.03-.08.1-.08.15-.05.11.07.21.15.3.24.15.13.29.27.48.45-.31-.14-.74-.43-.94-.64Z"/>
        <path class="cls-1" d="M155.3,115.92c.66.28,1.17.76,1.68,1.26.03,0,.07,0,.11,0-.15-.43-.36-.92-.59-1.39-.14-.07-.25-.17-.36-.27-.5-.47-1.05-.87-1.65-1.19-.55-.29-1.11-.58-1.68-.86-.69-.33-1.36-.71-1.98-1.17-.29-.22-.58-.45-.85-.7-1.24-1.12-2.38-2.34-3.31-3.73-.05-.08-.11-.15-.19-.25-.05.12.02.18.05.25.48.94,1.08,1.8,1.78,2.58.59.66,1.21,1.3,1.9,1.87.67.56,1.39,1.02,2.18,1.41.62.3,1.24.61,1.86.92.63.32,1.2.73,1.73,1.2.04.03.07.07.09.12-.51-.29-1.04-.53-1.57-.76-.81-.37-1.61-.74-2.46-1.02-.5-.16-1.01-.33-1.51-.49-.76-.23-1.42-.63-2-1.17-.91-.83-1.66-1.79-2.18-2.92-.15-.32-.31-.64-.43-.98-.23-.67-.33-1.37-.3-2.08,0-.07.01-.15.03-.22.04-.12.16-.16.26-.09.13.1.25.2.37.32.51.53,1.03,1.05,1.53,1.59.47.5.94,1.02,1.41,1.53.2.22.41.45.61.67.24.26.51.5.79.72.53.41,1.05.83,1.58,1.25.24.19.48.38.72.55,1.15.82,2.26,1.68,3.33,2.59.06.05.12.1.18.16-.18-.36-.36-.71-.52-1.01,0,.01,0,.02.01.04-.09-.06-.14-.09-.18-.12-.67-.51-1.34-1.03-2.01-1.54-.46-.35-.94-.7-1.4-1.05-.52-.4-1.03-.79-1.53-1.2-.24-.2-.47-.41-.69-.63-.22-.22-.43-.46-.64-.69-.49-.53-.99-1.06-1.49-1.59-.47-.49-.95-.98-1.43-1.46-.14-.14-.28-.27-.44-.38-.29-.21-.63-.09-.75.25-.02.06-.04.13-.04.19-.01.15-.03.3-.02.45.04.89.18,1.76.6,2.57.06.13.12.25.18.38.53,1.14,1.29,2.12,2.22,2.97.57.52,1.2.92,1.93,1.17.47.16.94.32,1.42.46.5.15.99.32,1.46.53.73.32,1.46.65,2.2.96Z"/>
        <path class="cls-1" d="M173.59,70.29c-.03-.17-.19-.25-.35-.17-.09.05-.18.12-.26.19-.15.14-.29.29-.43.44-.28.32-.55.64-.82.97-.53.66-1.08,1.3-1.66,1.91-.38.39-.75.78-1.13,1.17-.63.65-1.14,1.38-1.57,2.18-.28.52-.58,1.04-.89,1.55-.35.56-.75,1.09-1.17,1.6.41.18.79.45,1.15.74.16-.07.31-.14.46-.21.93-.4,1.81-.87,2.6-1.52.29-.24.58-.49.86-.74.44-.4.87-.82,1.2-1.31.58-.87,1.04-1.79,1.32-2.81.32-1.18.48-2.39.69-3.6.02-.12,0-.26-.01-.39ZM172.85,73.08c-.07.34-.16.67-.24,1.01-.25.99-.71,1.88-1.27,2.72-.19.29-.43.54-.67.79-.55.57-1.15,1.08-1.78,1.55-.44.33-.94.58-1.43.83-.23.12-.47.22-.71.32-.07.03-.14.05-.24.08.08-.17.19-.25.28-.35.42-.45.86-.89,1.27-1.34.63-.7,1.24-1.41,1.79-2.18.17-.24.33-.48.43-.76.03-.08.05-.17.07-.25.03-.1,0-.19-.07-.27.04-.11.09-.22.14-.35-.16.16-.31.41-.32.61,0,.08-.03.14-.07.21-.33.46-.62.93-1.01,1.35-.24.25-.47.51-.69.77-.5.6-1.1,1.1-1.71,1.59-.21.17-.42.33-.64.49-.05-.08,0-.12.04-.15.68-.82,1.22-1.74,1.71-2.68.39-.74.88-1.41,1.46-2.01.32-.33.63-.65.95-.98.68-.69,1.3-1.42,1.9-2.17.28-.35.56-.68.85-1.02.11-.13.23-.26.39-.38,0,.1.02.16.01.22-.14.79-.28,1.57-.44,2.36Z"/>
        <path class="cls-1" d="M161.27,78.67c-.06-.29-.12-.57-.18-.86-.08-.39-.23-.74-.43-1.08-.07-.11-.14-.22-.23-.31-.22-.23-.42-.21-.57.06-.07.12-.12.25-.17.39-.27.79-.47,1.6-.65,2.41-.14.65-.27,1.31-.41,1.97-.19.88-.48,1.73-.72,2.59-.18.65-.41,1.27-.67,1.89-.15.37-.29.74-.43,1.12-.17.46-.34.91-.51,1.37-.04.12-.09.24-.13.37-.06.17-.08.33.05.48-.02.04-.03.07-.04.1-.22.41-.44.82-.66,1.23-.01.03-.05.04-.1.08,0-.16.01-.29.02-.42.03-.41.04-.82.08-1.23.09-.86.19-1.72.28-2.58.08-.73.14-1.46.23-2.19.09-.75.16-1.51.17-2.26,0-.38,0-.76,0-1.14,0-.65.02-1.3-.02-1.95-.07-1.22-.17-2.44-.27-3.66-.02-.29-.11-.57-.18-.85-.02-.07-.06-.14-.1-.2-.05-.07-.16-.09-.23-.05-.07.04-.14.1-.19.17-.05.07-.08.15-.12.23-.33.68-.59,1.39-.83,2.11-.5,1.46-.98,2.93-1.37,4.43-.12.47-.19.95-.19,1.44,0,.43.02.86.01,1.3,0,.72.06,1.43.13,2.14.03.27.07.54.11.8.08.49.18.98.25,1.47.09.68.16,1.35.23,2.03.02.17.05.34.08.51.05.35.11.71.14,1.06.05.59.09,1.19.12,1.78.01.29,0,.58,0,.87.04.03.08.05.13.09-.06.17-.12.35-.18.52.54-.93,1-1.9,1.44-2.88.11-.43.29-.85.49-1.25.18-.37.37-.73.57-1.09.14-.25.29-.48.46-.71.61-1.05,1.35-2.02,2.32-2.84.01-.04.04-.07.06-.11.02-.1.07-.19.13-.26.02-.02.05-.03.08-.05,0-.09.02-.17.07-.25-.01,0-.02,0-.04,0,.07-.1.13-.2.19-.3.92-1.35,1.54-2.82,1.77-4.45.09-.68.13-1.36,0-2.03ZM155.08,90.31c-.04.54-.11,1.08-.24,1.6-.04.17-.11.33-.17.49,0,.03-.04.04-.08.08,0-.06-.02-.1,0-.14.1-.63.07-1.27.08-1.91.02-1.06-.04-2.12-.1-3.18-.07-1.24-.08-2.49,0-3.73.11-1.78.37-3.55.78-5.29.08-.34.14-.68.3-.99,0,0,0-.02-.02-.04-.11.08-.17.19-.22.3-.08.19-.15.38-.22.58-.35,1.07-.57,2.17-.73,3.29-.13.91-.25,1.82-.29,2.74-.02.58-.04,1.17-.02,1.75.04,1.23.12,2.46.14,3.7.02.93.08,1.86-.03,2.79-.04.36-.09.72-.17,1.09,0-.06-.03-.13-.03-.19-.02-.45-.02-.91-.05-1.36-.03-.41-.09-.82-.13-1.22-.03-.24-.06-.47-.08-.71-.07-.6-.12-1.21-.2-1.81-.06-.47-.14-.94-.24-1.41-.11-.5-.16-1.01-.2-1.51-.09-.97-.12-1.94-.11-2.92,0-.45.07-.9.18-1.35.24-.94.52-1.87.82-2.8.24-.73.47-1.46.73-2.18.17-.47.37-.92.55-1.38.02-.06.06-.11.09-.15.08,0,.08.06.08.09.04.22.09.45.11.67.08,1.1.17,2.2.22,3.3.03.64,0,1.28.01,1.91,0,.37,0,.74.01,1.1,0,.8-.07,1.6-.15,2.39-.07.68-.13,1.36-.21,2.03-.08.74-.18,1.48-.25,2.22-.07.71-.11,1.42-.16,2.13ZM160.97,80.48c-.07.4-.12.81-.22,1.21-.3,1.2-.82,2.3-1.51,3.32-.32.48-.63.96-.92,1.45-.2.34-.47.62-.69.94-.09-.06-.03-.1,0-.14.17-.27.36-.52.5-.79.91-1.69,1.61-3.44,1.92-5.35.08-.49.08-.99.09-1.49,0-.01-.03-.02-.05-.05-.09.13-.1.28-.12.42-.1.7-.28,1.38-.45,2.06-.22.87-.53,1.71-.89,2.54-.23.51-.44,1.04-.7,1.54-.39.76-.87,1.47-1.38,2.17,0-.05.01-.09.03-.14.15-.39.31-.78.47-1.17.2-.48.4-.96.59-1.44.16-.4.32-.8.45-1.22.23-.72.44-1.45.65-2.17.23-.8.38-1.62.53-2.44.18-.93.4-1.86.69-2.77.03-.1.08-.2.12-.3.01-.03.03-.06.05-.1.16.08.21.19.27.29.21.36.36.74.43,1.15.04.22.08.45.12.67.12.6.11,1.2.01,1.81Z"/>
        <path class="cls-1" d="M166.19,89.55c-.19.01-.39.04-.58.09-.33.09-.66.21-.99.3-1.25.36-2.45.84-3.61,1.44-.59.3-1.19.56-1.81.8-.1.04-.2.08-.31.07.32-.15.65-.31.97-.46.59-.27,1.16-.58,1.68-.97,1.19-.88,2.34-1.82,3.46-2.79.37-.32.71-.66,1.02-1.04.04-.05.07-.1.11-.15-.06.06-.14.11-.22.13l-.15.02c-.06,0-.1-.02-.15-.03-.14.15-.25.32-.41.46-.43.39-.87.78-1.33,1.14-.82.67-1.66,1.32-2.5,1.97-.51.39-1.07.7-1.65.96-.88.39-1.75.81-2.58,1.29-.33.2-.65.42-.98.64-.05.03-.1.07-.16.11-.07-.07,0-.11.02-.14.48-.61.99-1.2,1.59-1.7.6-.5,1.23-.96,1.89-1.36,1-.61,1.93-1.31,2.87-2.01.82-.62,1.66-1.22,2.48-1.83.08-.06.15-.12.21-.21-.05.01-.1.02-.14.04-.53.22-1.03.5-1.51.82-.63.44-1.25.89-1.87,1.35-.68.5-1.37.98-2.09,1.43-.54.34-1.06.71-1.58,1.08-.79.57-1.45,1.27-2.04,2.05-.6,1.3-1.22,2.59-2.04,3.73,0,.02-.01.04-.02.06.12.3.16.65.14,1,.03-.1.05-.2.08-.29.21-.11.39-.2.58-.29.11-.05.21-.11.33-.13.46-.11.93-.21,1.4-.3,1.1-.2,2.16-.54,3.2-.94.54-.21,1.06-.48,1.59-.73.52-.24,1.02-.53,1.48-.86,1.19-.86,2.24-1.88,3.15-3.02.16-.2.3-.42.44-.64.09-.15.17-.3.24-.46.04-.1.07-.21.08-.31.02-.22-.09-.33-.3-.32ZM166.16,90.02c-.07.16-.14.32-.24.46-.23.33-.47.65-.72.96-.64.76-1.36,1.45-2.13,2.09-.64.52-1.32.98-2.07,1.33-.58.27-1.14.57-1.74.79-.78.29-1.57.54-2.38.74-.65.16-1.31.27-1.97.42-.18.04-.35.1-.53.16.02-.04.03-.08.05-.1.52-.64,1.13-1.15,1.89-1.49.61-.28,1.23-.52,1.87-.73.8-.26,1.56-.63,2.32-1.01.43-.22.86-.45,1.29-.68.52-.27,1.01-.58,1.5-.9.15-.1.3-.2.39-.37-.02-.01-.04-.02-.04-.02-1.36.71-2.72,1.43-4.11,2.07-.61.28-1.23.54-1.87.73-.63.19-1.22.49-1.81.79-.5.26-.94.62-1.31,1.05-.06.07-.13.14-.2.21-.01-.25.04-.45.19-.62.35-.4.69-.8,1.04-1.2.38-.43.84-.78,1.33-1.08.68-.43,1.4-.77,2.15-1.04.58-.21,1.14-.47,1.7-.72.4-.18.8-.38,1.19-.58.81-.41,1.67-.7,2.54-.97.43-.13.87-.27,1.3-.4.11-.03.23-.04.37-.07,0,.08.01.15,0,.2Z"/>
        <path class="cls-1" d="M166.8,84.63c0,.1.03.18.02.24-.04.17-.09.34-.16.49-.07.16-.16.3-.25.44.04,0,.07-.02.12-.02.09,0,.16.02.23.05.08-.15.16-.3.23-.46.09-.21.15-.43.14-.66-.01-.33-.18-.4-.42-.34-.15.04-.29.08-.43.15-.34.17-.67.35-1,.54-.62.35-1.25.69-1.91.97-.82.35-1.61.74-2.39,1.16-.7.37-1.37.79-1.96,1.32-.14.12-.28.24-.42.36-.47.4-.92.82-1.34,1.28-.23.43-.45.86-.67,1.3.16-.2.32-.41.49-.61.53-.65,1.15-1.21,1.78-1.75,1.3-1.11,1.12-.99,2.84-1.91.53-.29,1.08-.54,1.64-.79.71-.32,1.41-.66,2.08-1.06.3-.18.6-.34.91-.5.14-.07.3-.12.48-.19Z"/>
        <path class="cls-1" d="M163.62,102.33c-.04-.49-.16-.96-.38-1.4-.19-.39-.39-.77-.58-1.16-.03-.06-.06-.11-.1-.16-.12-.15-.3-.18-.46-.06-.08.06-.15.13-.2.21-.1.16-.21.33-.28.51-.17.43-.32.87-.46,1.32-.21.65-.42,1.3-.61,1.95-.17.57-.34,1.14-.49,1.72-.23.87-.32,1.77-.45,2.65-.1.66-.21,1.32-.44,1.96-.08.22-.13.46-.2.68-.1.31-.2.62-.3.92,0,.02-.03.02-.06.04-.02-.07-.05-.14-.07-.21-.12-.38-.24-.76-.35-1.15-.1-.35-.18-.71-.24-1.07-.14-.78-.2-1.57-.25-2.36-.07-1.23-.18-2.46-.36-3.68-.09-.6-.27-1.18-.53-1.73-.06-.13-.14-.25-.22-.36-.18-.22-.38-.25-.64-.12-.19.1-.34.23-.45.41-.14.22-.24.46-.31.71-.21.77-.33,1.56-.35,2.37,0,.32.01.65,0,.97-.03.68-.08,1.36-.12,2.04-.04.57-.12,1.14-.05,1.72,0,.01-.02.03-.05.07-.03-.11-.06-.21-.08-.31,0,.15-.05.3-.16.4.06.09.12.17.18.26.1.13.19.26.22.42.06.36.26.66.46.96.16.23.33.45.5.68.11.14.22.27.34.39.65.64,1.21,1.36,1.83,2.02.17.18.3.39.45.58-.01.11-.03.19-.03.28,0,.06.02.15.06.18.15.1.17.27.19.41.09.04.11,0,.13-.06.02-.05.03-.11.03-.16,0-.22-.01-.43-.04-.65-.03-.23-.05-.45-.05-.68,0-.14-.04-.28.1-.38.01-.13.05-.26.04-.39-.06-.68.11-1.31.33-1.94.01-.04.04-.08.05-.12.29-1.03.66-2.04.8-3.1.07-.55.16-1.09.25-1.63.16-.93.41-1.83.71-2.73.26-.79.49-1.59.75-2.38.1-.3.21-.59.33-.88.04-.1.1-.19.16-.28.04-.06.1-.11.16-.19.04.05.09.08.11.12.19.39.39.77.57,1.16.19.39.29.81.33,1.25,0,.04,0,.09.01.13.04.83.08,1.66.11,2.5.03.78-.07,1.55-.27,2.31-.01.05-.02.11-.04.16-.31.81-.61,1.62-1.12,2.34-.11.16-.22.32-.31.5-.34.65-.69,1.3-.98,1.97-.2.48-.43.94-.61,1.43-.22.59-.38,1.19-.41,1.83,0,.09-.02.17-.08.24-.08.08-.09.19-.11.3-.04.21-.07.42-.11.64-.08-.03-.06-.09-.06-.13-.03-.32-.06-.65-.09-.97-.04-.64.03-1.28.18-1.9.13-.49.3-.97.47-1.45.3-.86.7-1.67,1.05-2.51.18-.44.32-.9.43-1.36.28-1.14.47-2.29.59-3.45.08-.74.11-1.49.13-2.23,0-.1-.01-.21-.02-.31-.1.02-.09.09-.1.15-.06.42-.1.84-.17,1.25-.23,1.46-.45,2.93-.79,4.37-.15.65-.35,1.29-.62,1.91-.16.36-.32.71-.46,1.07-.33.82-.65,1.65-.85,2.52-.17.75-.24,1.51-.17,2.29.06.63.12,1.25.26,1.86,0,.02,0,.03.01.05.14-.03.27-.06.41-.09,0-.04.01-.07.04-.11.04-.05.03-.14.04-.22.02-.17.02-.34.04-.52.04.01.07.02.11.03.02-.07.05-.14.06-.22.06-.41.11-.81.17-1.22.06-.47.15-.94.31-1.39.3-.88.71-1.72,1.1-2.56,0,0,.01-.02.02-.03.35-.65.68-1.3,1.09-1.92.36-.54.59-1.16.82-1.76.33-.87.46-1.78.43-2.71-.03-.84-.08-1.69-.11-2.53,0-.09-.01-.17-.02-.26ZM158.34,113.32c-.09.02-.1-.05-.12-.09-.31-.58-.62-1.17-.91-1.76-.21-.43-.34-.89-.46-1.35-.44-1.72-.65-3.46-.7-5.23-.01-.41-.04-.82-.06-1.23,0-.09,0-.17,0-.26,0-.08,0-.16,0-.29-.05.06-.08.08-.08.1-.04.28-.1.55-.12.83-.09,1.28-.05,2.55.12,3.82.12.91.31,1.81.55,2.7.14.49.32.96.57,1.41.19.34.37.69.55,1.03.03.05.04.11.06.17-.03-.01-.07-.02-.1-.05-.08-.09-.16-.18-.23-.27-.36-.44-.73-.86-1.11-1.27-.32-.35-.58-.76-.86-1.13-.1-.13-.12-.29-.21-.43-.08-.13-.08-.31-.11-.47-.03-.16-.06-.32-.08-.48-.06-.36-.03-.71,0-1.07.04-.53.07-1.06.12-1.59.05-.63.04-1.25.03-1.88,0-.52.06-1.04.13-1.55.04-.33.1-.66.21-.98.06-.18.14-.36.22-.54.06-.13.15-.24.27-.32.19-.13.28-.12.4.06.04.06.08.13.11.2.21.47.38.94.45,1.45.2,1.36.34,2.73.4,4.1.04.89.14,1.77.31,2.64.06.34.18.67.27,1,.12.42.27.82.37,1.24.12.48.16.98.03,1.47Z"/>
      </g>
      <path class="cls-1" d="M154.18,66.14s0,.04,0,.05c0,0-.02,0-.03,0,.01-.02.02-.03.03-.05Z"/>
      <path class="cls-1" d="M142.95,43.74s0,.03,0,.04c0,0-.02,0-.02,0,0-.01.01-.03.02-.04Z"/>
      <path class="cls-1" d="M139.97,56.65s-.03-.06,0-.11c0,.03,0,.06,0,.11Z"/>
      <path class="cls-1" d="M139.68,59.64s-.06,0-.08-.01c-.02-.02-.03-.04-.04-.07.03,0,.06,0,.08,0,.02.01.02.05.03.07Z"/>
      <path class="cls-1" d="M138.88,60.52s.01.03.01.04c0,0-.01,0-.02.01,0-.02,0-.04,0-.05Z"/>
      <path class="cls-1" d="M139.21,66.01c-.08.04-.07-.03-.09-.06.03.02.06.04.09.06Z"/>
      <path class="cls-1" d="M139.12,65.94s-.08.02-.12.03c-.05,0-.09,0-.12-.04.08,0,.16,0,.24,0h0Z"/>
      <path class="cls-1" d="M141.34,84.02s-.03-.02-.03-.03c0-.02.02-.03.03-.05,0,.02,0,.04,0,.05,0,0,0,.02,0,.03Z"/>
      <path class="cls-1" d="M139.13,98s.09-.04.14-.06c0,.01,0,.03.01.04-.05,0-.1.02-.15.03Z"/>
      <path class="cls-1" d="M142.63,96.82l-.02-.04s.03,0,.04,0c0,.01-.01.02-.02.04Z"/>
      <path class="cls-1" d="M157.77,113.26s-.01-.04-.02-.06l.04.04s-.01.01-.02.02Z"/>
      <path class="cls-1" d="M154.88,93.25s0,0,0,0c0,0,0,0,0,0,.03-.03.05-.06.08-.08,0,.04-.04.06-.07.08Z"/>
      <path class="cls-1" d="M155.31,93.65s0,.03.01.04c-.01,0-.03,0-.04,0,0-.01.02-.02.03-.04Z"/>
      <path class="cls-1" d="M158.84,92.31s0-.03.02-.04c0,.01-.01.02-.02.04Z"/>
      <path class="cls-1" d="M162.96,82.88c.05-.04.11-.08.16-.12-.02.1-.05.13-.16.12Z"/>
      <path class="cls-1" d="M163.14,82.74c.05-.05.1-.13.19-.11-.05.06-.1.13-.19.11Z"/>
      <path class="cls-1" d="M163.35,82.62s-.01-.04,0-.04c.06-.08.12-.15.23-.17-.03.11-.13.16-.22.21Z"/>
      <path class="cls-1" d="M163.6,82.38c.16-.19.32-.31.54-.4-.17.19-.33.33-.54.4Z"/>
      <path class="cls-1" d="M154.72,93.71s.02-.01.03-.02c-.01,0-.03.02-.04.02,0,0,.02.01.02.02,0,0,0,.01,0,.02,0-.02,0-.03,0-.05"/>
      <path class="cls-1" d="M139.09,61.47v-.07s0,.05,0,.07c.09.12.18.25.28.39.03-.04.05-.07.08-.12-.09-.09-.18-.18-.27-.27-.02-.01-.06,0-.09,0"/>
      <path class="cls-1" d="M154.01,23.34s.03.06.05.07c.28.18.54.39.78.63.01.01.05,0,.09,0-.02-.28-.04-.55-.06-.82,0-.02-.02-.04-.04-.06-.25.04-.5.08-.76.12-.02,0-.03.02-.05.04"/>
      <path class="cls-1" d="M141.97,47.32c-.26-.09-.47-.22-.67-.36-.02-.01-.05,0-.09,0,.2.22.39.43.58.63.02.02.05.02.09.03.03-.09.05-.17.09-.3"/>
      <path class="cls-1" d="M140.11,54.96c.05.1.1.19.15.27.04.07.04.18.14.23-.01-.14-.02-.25-.03-.37,0-.11-.02-.23-.03-.37-.08.08-.15.15-.23.24"/>
      <path class="cls-1" d="M140.05,54.27c-.05.14-.09.22-.12.32.06.01.11.04.14.03.05-.03.09-.08.14-.13-.05-.07-.09-.13-.16-.22"/>
      <path class="cls-1" d="M156.54,34.83c.13.12.26.14.39.18,0-.06,0-.11,0-.18-.13,0-.24,0-.4,0"/>
      <path class="cls-1" d="M141.58,50.08s.02,0,.04,0c0-.16.02-.32.02-.48,0-.06-.03-.11-.1-.07.01.18.03.36.04.54"/>
      <path class="cls-1" d="M156.81,47.8c-.12.23-.14.37-.09.55.12-.17.17-.34.09-.55"/>
      <path class="cls-1" d="M138.54,52.81c.01-.15.06-.33-.17-.39-.02.16.07.28.17.39"/>
      <path class="cls-1" d="M141.32,65.28c.05-.12.09-.22.13-.32-.12.05-.22.12-.22.26,0,.01.03.02.08.06"/>
      <path class="cls-1" d="M155.33,19.38c-.1.15-.09.16.11.32.01-.12-.03-.21-.11-.32"/>
      <path class="cls-1" d="M154,94.14c.13-.17.1-.3.06-.43-.02.12-.03.24-.06.43"/>
      <path class="cls-1" d="M146.36,39.91c.03-.1.09-.17.04-.27q-.12.1-.04.27"/>
      <path class="cls-1" d="M157.43,38.04c-.17.12-.12.2-.05.36.02-.14.03-.22.05-.36"/>
      <path class="cls-1" d="M140.04,96.03q-.03-.12-.22-.17c.1.08.15.12.22.17"/>
      <path class="cls-1" d="M141.55,51.32s.01,0,.02,0c0-.03.01-.06.01-.09,0-.04-.01-.08-.03-.19-.01.1-.02.13-.02.17,0,.04.01.08.02.12"/>
      <path class="cls-1" d="M155.44,22.69s-.01-.04-.02-.04c-.04-.01-.07-.03-.11-.03,0,0-.02.05-.03.08.04,0,.08.02.11.02,0,0,.02,0,.04-.03"/>
      <path class="cls-1" d="M156.54,39.55s.03,0,.04,0c0-.05.01-.09.01-.14,0,0-.03-.03-.05-.02-.02,0-.05.02-.05.03,0,.05.02.09.04.14"/>
      <path class="cls-1" d="M165.15,81.11s0-.01,0-.02c0,0-.01.01-.02.02,0,0,0,.02,0,.02,0,0,.01-.01.02-.02"/>
      <path class="cls-1" d="M141.59,50.78s0,0,0,0c0,.03,0,.05,0,.08,0,0,0,0,.01,0,0-.03,0-.05,0-.08"/>
      <path class="cls-1" d="M140.38,65.37s0,.01,0,.02c0,0,.02,0,.03,0,0-.01,0-.02,0-.04,0,0-.02,0-.02.01"/>
      <polygon class="cls-1" points="156.85 47.62 156.83 47.61 156.84 47.63 156.85 47.62"/>
      <polygon class="cls-1" points="156.47 88.48 156.45 88.48 156.46 88.5 156.47 88.48"/>
    </g>
  </g>
</svg>